G04 #@! TF.GenerationSoftware,KiCad,Pcbnew,5.1.5+dfsg1-2build2*
G04 #@! TF.CreationDate,2022-04-22T12:54:42+02:00*
G04 #@! TF.ProjectId,Shield,53686965-6c64-42e6-9b69-6361645f7063,1.0*
G04 #@! TF.SameCoordinates,Original*
G04 #@! TF.FileFunction,Legend,Top*
G04 #@! TF.FilePolarity,Positive*
%FSLAX46Y46*%
G04 Gerber Fmt 4.6, Leading zero omitted, Abs format (unit mm)*
G04 Created by KiCad (PCBNEW 5.1.5+dfsg1-2build2) date 2022-04-22 12:54:42*
%MOMM*%
%LPD*%
G04 APERTURE LIST*
%ADD10C,0.150000*%
%ADD11C,0.200000*%
%ADD12C,0.500000*%
%ADD13C,0.120000*%
%ADD14C,0.100000*%
%ADD15C,0.071590*%
%ADD16C,0.254000*%
%ADD17C,1.500000*%
%ADD18C,1.524000*%
%ADD19C,1.400000*%
%ADD20C,1.800000*%
%ADD21R,1.200000X2.500000*%
%ADD22R,0.600000X0.750000*%
%ADD23R,0.750000X0.600000*%
%ADD24C,1.425000*%
%ADD25R,1.425000X1.425000*%
%ADD26R,2.513000X3.402000*%
%ADD27R,1.525000X0.700000*%
%ADD28R,0.760000X0.820000*%
%ADD29R,0.980000X1.430000*%
%ADD30R,0.940000X1.430000*%
G04 APERTURE END LIST*
D10*
X138785695Y-94681657D02*
X140309504Y-94681657D01*
X139547600Y-95443561D02*
X139547600Y-93919752D01*
X139588857Y-99110704D02*
X139588857Y-97586895D01*
X67872685Y-72251961D02*
X67801257Y-72204342D01*
X67729828Y-72061485D01*
X67729828Y-71966247D01*
X67801257Y-71823390D01*
X67944114Y-71728152D01*
X68086971Y-71680533D01*
X68372685Y-71632914D01*
X68586971Y-71632914D01*
X68872685Y-71680533D01*
X69015542Y-71728152D01*
X69158400Y-71823390D01*
X69229828Y-71966247D01*
X69229828Y-72061485D01*
X69158400Y-72204342D01*
X69086971Y-72251961D01*
X69229828Y-72537676D02*
X69229828Y-73109104D01*
X67729828Y-72823390D02*
X69229828Y-72823390D01*
X67729828Y-73442438D02*
X69229828Y-73442438D01*
X67729828Y-74013866D01*
X69229828Y-74013866D01*
X66829828Y-71013866D02*
X66829828Y-71585295D01*
X65329828Y-71299580D02*
X66829828Y-71299580D01*
X65401257Y-72299580D02*
X65329828Y-72204342D01*
X65329828Y-72013866D01*
X65401257Y-71918628D01*
X65544114Y-71871009D01*
X66115542Y-71871009D01*
X66258400Y-71918628D01*
X66329828Y-72013866D01*
X66329828Y-72204342D01*
X66258400Y-72299580D01*
X66115542Y-72347200D01*
X65972685Y-72347200D01*
X65829828Y-71871009D01*
X65329828Y-72775771D02*
X66329828Y-72775771D01*
X66186971Y-72775771D02*
X66258400Y-72823390D01*
X66329828Y-72918628D01*
X66329828Y-73061485D01*
X66258400Y-73156723D01*
X66115542Y-73204342D01*
X65329828Y-73204342D01*
X66115542Y-73204342D02*
X66258400Y-73251961D01*
X66329828Y-73347200D01*
X66329828Y-73490057D01*
X66258400Y-73585295D01*
X66115542Y-73632914D01*
X65329828Y-73632914D01*
X66329828Y-74109104D02*
X64829828Y-74109104D01*
X66258400Y-74109104D02*
X66329828Y-74204342D01*
X66329828Y-74394819D01*
X66258400Y-74490057D01*
X66186971Y-74537676D01*
X66044114Y-74585295D01*
X65615542Y-74585295D01*
X65472685Y-74537676D01*
X65401257Y-74490057D01*
X65329828Y-74394819D01*
X65329828Y-74204342D01*
X65401257Y-74109104D01*
D11*
X125679295Y-97882057D02*
X127203104Y-97882057D01*
X126441200Y-98643961D02*
X126441200Y-97120152D01*
X111709295Y-98034457D02*
X113233104Y-98034457D01*
D10*
X141672571Y-81140857D02*
X142886857Y-81140857D01*
X143029714Y-81069428D01*
X143101142Y-80998000D01*
X143172571Y-80855142D01*
X143172571Y-80569428D01*
X143101142Y-80426571D01*
X143029714Y-80355142D01*
X142886857Y-80283714D01*
X141672571Y-80283714D01*
X143101142Y-79640857D02*
X143172571Y-79426571D01*
X143172571Y-79069428D01*
X143101142Y-78926571D01*
X143029714Y-78855142D01*
X142886857Y-78783714D01*
X142744000Y-78783714D01*
X142601142Y-78855142D01*
X142529714Y-78926571D01*
X142458285Y-79069428D01*
X142386857Y-79355142D01*
X142315428Y-79498000D01*
X142244000Y-79569428D01*
X142101142Y-79640857D01*
X141958285Y-79640857D01*
X141815428Y-79569428D01*
X141744000Y-79498000D01*
X141672571Y-79355142D01*
X141672571Y-78998000D01*
X141744000Y-78783714D01*
X142386857Y-77640857D02*
X142458285Y-77426571D01*
X142529714Y-77355142D01*
X142672571Y-77283714D01*
X142886857Y-77283714D01*
X143029714Y-77355142D01*
X143101142Y-77426571D01*
X143172571Y-77569428D01*
X143172571Y-78140857D01*
X141672571Y-78140857D01*
X141672571Y-77640857D01*
X141744000Y-77498000D01*
X141815428Y-77426571D01*
X141958285Y-77355142D01*
X142101142Y-77355142D01*
X142244000Y-77426571D01*
X142315428Y-77498000D01*
X142386857Y-77640857D01*
X142386857Y-78140857D01*
X68518628Y-93845428D02*
X67018628Y-94202571D01*
X68090057Y-94488285D01*
X67018628Y-94774000D01*
X68518628Y-95131142D01*
X67018628Y-95702571D02*
X68018628Y-95702571D01*
X68518628Y-95702571D02*
X68447200Y-95631142D01*
X68375771Y-95702571D01*
X68447200Y-95774000D01*
X68518628Y-95702571D01*
X68375771Y-95702571D01*
X68018628Y-96416857D02*
X67018628Y-96416857D01*
X67875771Y-96416857D02*
X67947200Y-96488285D01*
X68018628Y-96631142D01*
X68018628Y-96845428D01*
X67947200Y-96988285D01*
X67804342Y-97059714D01*
X67018628Y-97059714D01*
X67018628Y-98416857D02*
X68518628Y-98416857D01*
X67090057Y-98416857D02*
X67018628Y-98274000D01*
X67018628Y-97988285D01*
X67090057Y-97845428D01*
X67161485Y-97774000D01*
X67304342Y-97702571D01*
X67732914Y-97702571D01*
X67875771Y-97774000D01*
X67947200Y-97845428D01*
X68018628Y-97988285D01*
X68018628Y-98274000D01*
X67947200Y-98416857D01*
X64690057Y-93274000D02*
X64618628Y-93488285D01*
X64618628Y-93845428D01*
X64690057Y-93988285D01*
X64761485Y-94059714D01*
X64904342Y-94131142D01*
X65047200Y-94131142D01*
X65190057Y-94059714D01*
X65261485Y-93988285D01*
X65332914Y-93845428D01*
X65404342Y-93559714D01*
X65475771Y-93416857D01*
X65547200Y-93345428D01*
X65690057Y-93274000D01*
X65832914Y-93274000D01*
X65975771Y-93345428D01*
X66047200Y-93416857D01*
X66118628Y-93559714D01*
X66118628Y-93916857D01*
X66047200Y-94131142D01*
X64690057Y-95345428D02*
X64618628Y-95202571D01*
X64618628Y-94916857D01*
X64690057Y-94774000D01*
X64832914Y-94702571D01*
X65404342Y-94702571D01*
X65547200Y-94774000D01*
X65618628Y-94916857D01*
X65618628Y-95202571D01*
X65547200Y-95345428D01*
X65404342Y-95416857D01*
X65261485Y-95416857D01*
X65118628Y-94702571D01*
X65618628Y-96059714D02*
X64618628Y-96059714D01*
X65475771Y-96059714D02*
X65547200Y-96131142D01*
X65618628Y-96274000D01*
X65618628Y-96488285D01*
X65547200Y-96631142D01*
X65404342Y-96702571D01*
X64618628Y-96702571D01*
X64690057Y-97345428D02*
X64618628Y-97488285D01*
X64618628Y-97774000D01*
X64690057Y-97916857D01*
X64832914Y-97988285D01*
X64904342Y-97988285D01*
X65047200Y-97916857D01*
X65118628Y-97774000D01*
X65118628Y-97559714D01*
X65190057Y-97416857D01*
X65332914Y-97345428D01*
X65404342Y-97345428D01*
X65547200Y-97416857D01*
X65618628Y-97559714D01*
X65618628Y-97774000D01*
X65547200Y-97916857D01*
X64618628Y-98845428D02*
X64690057Y-98702571D01*
X64761485Y-98631142D01*
X64904342Y-98559714D01*
X65332914Y-98559714D01*
X65475771Y-98631142D01*
X65547200Y-98702571D01*
X65618628Y-98845428D01*
X65618628Y-99059714D01*
X65547200Y-99202571D01*
X65475771Y-99274000D01*
X65332914Y-99345428D01*
X64904342Y-99345428D01*
X64761485Y-99274000D01*
X64690057Y-99202571D01*
X64618628Y-99059714D01*
X64618628Y-98845428D01*
X64618628Y-99988285D02*
X65618628Y-99988285D01*
X65332914Y-99988285D02*
X65475771Y-100059714D01*
X65547200Y-100131142D01*
X65618628Y-100274000D01*
X65618628Y-100416857D01*
X137764780Y-102931314D02*
X137764780Y-103407504D01*
X136764780Y-103407504D01*
X137764780Y-102597980D02*
X137098114Y-102597980D01*
X136764780Y-102597980D02*
X136812400Y-102645600D01*
X136860019Y-102597980D01*
X136812400Y-102550361D01*
X136764780Y-102597980D01*
X136860019Y-102597980D01*
X137764780Y-102121790D02*
X136764780Y-102121790D01*
X136764780Y-101740838D01*
X136812400Y-101645600D01*
X136860019Y-101597980D01*
X136955257Y-101550361D01*
X137098114Y-101550361D01*
X137193352Y-101597980D01*
X137240971Y-101645600D01*
X137288590Y-101740838D01*
X137288590Y-102121790D01*
X137764780Y-100978933D02*
X137717161Y-101074171D01*
X137669542Y-101121790D01*
X137574304Y-101169409D01*
X137288590Y-101169409D01*
X137193352Y-101121790D01*
X137145733Y-101074171D01*
X137098114Y-100978933D01*
X137098114Y-100836076D01*
X137145733Y-100740838D01*
X137193352Y-100693219D01*
X137288590Y-100645600D01*
X137574304Y-100645600D01*
X137669542Y-100693219D01*
X137717161Y-100740838D01*
X137764780Y-100836076D01*
X137764780Y-100978933D01*
X137240971Y-99121790D02*
X137288590Y-98978933D01*
X137336209Y-98931314D01*
X137431447Y-98883695D01*
X137574304Y-98883695D01*
X137669542Y-98931314D01*
X137717161Y-98978933D01*
X137764780Y-99074171D01*
X137764780Y-99455123D01*
X136764780Y-99455123D01*
X136764780Y-99121790D01*
X136812400Y-99026552D01*
X136860019Y-98978933D01*
X136955257Y-98931314D01*
X137050495Y-98931314D01*
X137145733Y-98978933D01*
X137193352Y-99026552D01*
X137240971Y-99121790D01*
X137240971Y-99455123D01*
X137764780Y-98026552D02*
X137240971Y-98026552D01*
X137145733Y-98074171D01*
X137098114Y-98169409D01*
X137098114Y-98359885D01*
X137145733Y-98455123D01*
X137717161Y-98026552D02*
X137764780Y-98121790D01*
X137764780Y-98359885D01*
X137717161Y-98455123D01*
X137621923Y-98502742D01*
X137526685Y-98502742D01*
X137431447Y-98455123D01*
X137383828Y-98359885D01*
X137383828Y-98121790D01*
X137336209Y-98026552D01*
X137098114Y-97693219D02*
X137098114Y-97312266D01*
X136764780Y-97550361D02*
X137621923Y-97550361D01*
X137717161Y-97502742D01*
X137764780Y-97407504D01*
X137764780Y-97312266D01*
X137098114Y-97121790D02*
X137098114Y-96740838D01*
X136764780Y-96978933D02*
X137621923Y-96978933D01*
X137717161Y-96931314D01*
X137764780Y-96836076D01*
X137764780Y-96740838D01*
X136764780Y-95740838D02*
X136764780Y-95121790D01*
X137145733Y-95455123D01*
X137145733Y-95312266D01*
X137193352Y-95217028D01*
X137240971Y-95169409D01*
X137336209Y-95121790D01*
X137574304Y-95121790D01*
X137669542Y-95169409D01*
X137717161Y-95217028D01*
X137764780Y-95312266D01*
X137764780Y-95597980D01*
X137717161Y-95693219D01*
X137669542Y-95740838D01*
X137669542Y-94693219D02*
X137717161Y-94645600D01*
X137764780Y-94693219D01*
X137717161Y-94740838D01*
X137669542Y-94693219D01*
X137764780Y-94693219D01*
X136764780Y-94312266D02*
X136764780Y-93645600D01*
X137764780Y-94074171D01*
X136764780Y-93407504D02*
X137764780Y-93074171D01*
X136764780Y-92740838D01*
X132334095Y-93208457D02*
X133857904Y-93208457D01*
X133096000Y-93970361D02*
X133096000Y-92446552D01*
X133188057Y-103276304D02*
X133188057Y-101752495D01*
X113162628Y-105001961D02*
X113376914Y-105049580D01*
X113734057Y-105049580D01*
X113876914Y-105001961D01*
X113948342Y-104954342D01*
X114019771Y-104859104D01*
X114019771Y-104763866D01*
X113948342Y-104668628D01*
X113876914Y-104621009D01*
X113734057Y-104573390D01*
X113448342Y-104525771D01*
X113305485Y-104478152D01*
X113234057Y-104430533D01*
X113162628Y-104335295D01*
X113162628Y-104240057D01*
X113234057Y-104144819D01*
X113305485Y-104097200D01*
X113448342Y-104049580D01*
X113805485Y-104049580D01*
X114019771Y-104097200D01*
X114876914Y-105049580D02*
X114734057Y-105001961D01*
X114662628Y-104954342D01*
X114591200Y-104859104D01*
X114591200Y-104573390D01*
X114662628Y-104478152D01*
X114734057Y-104430533D01*
X114876914Y-104382914D01*
X115091200Y-104382914D01*
X115234057Y-104430533D01*
X115305485Y-104478152D01*
X115376914Y-104573390D01*
X115376914Y-104859104D01*
X115305485Y-104954342D01*
X115234057Y-105001961D01*
X115091200Y-105049580D01*
X114876914Y-105049580D01*
X116234057Y-105049580D02*
X116091200Y-105001961D01*
X116019771Y-104906723D01*
X116019771Y-104049580D01*
X117448342Y-105049580D02*
X117448342Y-104525771D01*
X117376914Y-104430533D01*
X117234057Y-104382914D01*
X116948342Y-104382914D01*
X116805485Y-104430533D01*
X117448342Y-105001961D02*
X117305485Y-105049580D01*
X116948342Y-105049580D01*
X116805485Y-105001961D01*
X116734057Y-104906723D01*
X116734057Y-104811485D01*
X116805485Y-104716247D01*
X116948342Y-104668628D01*
X117305485Y-104668628D01*
X117448342Y-104621009D01*
X118162628Y-105049580D02*
X118162628Y-104382914D01*
X118162628Y-104573390D02*
X118234057Y-104478152D01*
X118305485Y-104430533D01*
X118448342Y-104382914D01*
X118591200Y-104382914D01*
X120234057Y-105049580D02*
X120234057Y-104049580D01*
X120805485Y-104049580D01*
X120948342Y-104097200D01*
X121019771Y-104144819D01*
X121091200Y-104240057D01*
X121091200Y-104382914D01*
X121019771Y-104478152D01*
X120948342Y-104525771D01*
X120805485Y-104573390D01*
X120234057Y-104573390D01*
X121591200Y-104382914D02*
X121876914Y-105049580D01*
X122162628Y-104573390D01*
X122448342Y-105049580D01*
X122734057Y-104382914D01*
X123305485Y-105049580D02*
X123305485Y-104382914D01*
X123305485Y-104573390D02*
X123376914Y-104478152D01*
X123448342Y-104430533D01*
X123591200Y-104382914D01*
X123734057Y-104382914D01*
X125376914Y-105049580D02*
X125376914Y-104049580D01*
X126091200Y-105049580D02*
X126091200Y-104049580D01*
X126948342Y-105049580D01*
X126948342Y-104049580D01*
X76023542Y-102302571D02*
X76309257Y-102302571D01*
X76452114Y-102374000D01*
X76594971Y-102516857D01*
X76666400Y-102802571D01*
X76666400Y-103302571D01*
X76594971Y-103588285D01*
X76452114Y-103731142D01*
X76309257Y-103802571D01*
X76023542Y-103802571D01*
X75880685Y-103731142D01*
X75737828Y-103588285D01*
X75666400Y-103302571D01*
X75666400Y-102802571D01*
X75737828Y-102516857D01*
X75880685Y-102374000D01*
X76023542Y-102302571D01*
X77309257Y-102802571D02*
X77309257Y-103802571D01*
X77309257Y-102945428D02*
X77380685Y-102874000D01*
X77523542Y-102802571D01*
X77737828Y-102802571D01*
X77880685Y-102874000D01*
X77952114Y-103016857D01*
X77952114Y-103802571D01*
X80880685Y-102231142D02*
X79594971Y-104159714D01*
X82809257Y-102302571D02*
X83094971Y-102302571D01*
X83237828Y-102374000D01*
X83380685Y-102516857D01*
X83452114Y-102802571D01*
X83452114Y-103302571D01*
X83380685Y-103588285D01*
X83237828Y-103731142D01*
X83094971Y-103802571D01*
X82809257Y-103802571D01*
X82666400Y-103731142D01*
X82523542Y-103588285D01*
X82452114Y-103302571D01*
X82452114Y-102802571D01*
X82523542Y-102516857D01*
X82666400Y-102374000D01*
X82809257Y-102302571D01*
X83880685Y-102802571D02*
X84452114Y-102802571D01*
X84094971Y-103802571D02*
X84094971Y-102516857D01*
X84166400Y-102374000D01*
X84309257Y-102302571D01*
X84452114Y-102302571D01*
X84737828Y-102802571D02*
X85309257Y-102802571D01*
X84952114Y-103802571D02*
X84952114Y-102516857D01*
X85023542Y-102374000D01*
X85166400Y-102302571D01*
X85309257Y-102302571D01*
X105970628Y-102935885D02*
X105970628Y-103650171D01*
X105637295Y-102150171D02*
X105970628Y-102935885D01*
X106303961Y-102150171D01*
X107018247Y-103578742D02*
X106923009Y-103650171D01*
X106732533Y-103650171D01*
X106637295Y-103578742D01*
X106589676Y-103435885D01*
X106589676Y-102864457D01*
X106637295Y-102721600D01*
X106732533Y-102650171D01*
X106923009Y-102650171D01*
X107018247Y-102721600D01*
X107065866Y-102864457D01*
X107065866Y-103007314D01*
X106589676Y-103150171D01*
X107637295Y-103650171D02*
X107542057Y-103578742D01*
X107494438Y-103435885D01*
X107494438Y-102150171D01*
X108161104Y-103650171D02*
X108065866Y-103578742D01*
X108018247Y-103435885D01*
X108018247Y-102150171D01*
X108684914Y-103650171D02*
X108589676Y-103578742D01*
X108542057Y-103507314D01*
X108494438Y-103364457D01*
X108494438Y-102935885D01*
X108542057Y-102793028D01*
X108589676Y-102721600D01*
X108684914Y-102650171D01*
X108827771Y-102650171D01*
X108923009Y-102721600D01*
X108970628Y-102793028D01*
X109018247Y-102935885D01*
X109018247Y-103364457D01*
X108970628Y-103507314D01*
X108923009Y-103578742D01*
X108827771Y-103650171D01*
X108684914Y-103650171D01*
X109351580Y-102650171D02*
X109542057Y-103650171D01*
X109732533Y-102935885D01*
X109923009Y-103650171D01*
X110113485Y-102650171D01*
X101512857Y-102170800D02*
X101417619Y-102099371D01*
X101274761Y-102099371D01*
X101131904Y-102170800D01*
X101036666Y-102313657D01*
X100989047Y-102456514D01*
X100941428Y-102742228D01*
X100941428Y-102956514D01*
X100989047Y-103242228D01*
X101036666Y-103385085D01*
X101131904Y-103527942D01*
X101274761Y-103599371D01*
X101370000Y-103599371D01*
X101512857Y-103527942D01*
X101560476Y-103456514D01*
X101560476Y-102956514D01*
X101370000Y-102956514D01*
X101989047Y-103599371D02*
X101989047Y-102599371D01*
X101989047Y-102885085D02*
X102036666Y-102742228D01*
X102084285Y-102670800D01*
X102179523Y-102599371D01*
X102274761Y-102599371D01*
X102989047Y-103527942D02*
X102893809Y-103599371D01*
X102703333Y-103599371D01*
X102608095Y-103527942D01*
X102560476Y-103385085D01*
X102560476Y-102813657D01*
X102608095Y-102670800D01*
X102703333Y-102599371D01*
X102893809Y-102599371D01*
X102989047Y-102670800D01*
X103036666Y-102813657D01*
X103036666Y-102956514D01*
X102560476Y-103099371D01*
X103846190Y-103527942D02*
X103750952Y-103599371D01*
X103560476Y-103599371D01*
X103465238Y-103527942D01*
X103417619Y-103385085D01*
X103417619Y-102813657D01*
X103465238Y-102670800D01*
X103560476Y-102599371D01*
X103750952Y-102599371D01*
X103846190Y-102670800D01*
X103893809Y-102813657D01*
X103893809Y-102956514D01*
X103417619Y-103099371D01*
X104322380Y-102599371D02*
X104322380Y-103599371D01*
X104322380Y-102742228D02*
X104370000Y-102670800D01*
X104465238Y-102599371D01*
X104608095Y-102599371D01*
X104703333Y-102670800D01*
X104750952Y-102813657D01*
X104750952Y-103599371D01*
X96862971Y-103650171D02*
X96529638Y-102935885D01*
X96291542Y-103650171D02*
X96291542Y-102150171D01*
X96672495Y-102150171D01*
X96767733Y-102221600D01*
X96815352Y-102293028D01*
X96862971Y-102435885D01*
X96862971Y-102650171D01*
X96815352Y-102793028D01*
X96767733Y-102864457D01*
X96672495Y-102935885D01*
X96291542Y-102935885D01*
X97672495Y-103578742D02*
X97577257Y-103650171D01*
X97386780Y-103650171D01*
X97291542Y-103578742D01*
X97243923Y-103435885D01*
X97243923Y-102864457D01*
X97291542Y-102721600D01*
X97386780Y-102650171D01*
X97577257Y-102650171D01*
X97672495Y-102721600D01*
X97720114Y-102864457D01*
X97720114Y-103007314D01*
X97243923Y-103150171D01*
X98577257Y-103650171D02*
X98577257Y-102150171D01*
X98577257Y-103578742D02*
X98482019Y-103650171D01*
X98291542Y-103650171D01*
X98196304Y-103578742D01*
X98148685Y-103507314D01*
X98101066Y-103364457D01*
X98101066Y-102935885D01*
X98148685Y-102793028D01*
X98196304Y-102721600D01*
X98291542Y-102650171D01*
X98482019Y-102650171D01*
X98577257Y-102721600D01*
X90929009Y-102864457D02*
X91071866Y-102935885D01*
X91119485Y-103007314D01*
X91167104Y-103150171D01*
X91167104Y-103364457D01*
X91119485Y-103507314D01*
X91071866Y-103578742D01*
X90976628Y-103650171D01*
X90595676Y-103650171D01*
X90595676Y-102150171D01*
X90929009Y-102150171D01*
X91024247Y-102221600D01*
X91071866Y-102293028D01*
X91119485Y-102435885D01*
X91119485Y-102578742D01*
X91071866Y-102721600D01*
X91024247Y-102793028D01*
X90929009Y-102864457D01*
X90595676Y-102864457D01*
X91738533Y-103650171D02*
X91643295Y-103578742D01*
X91595676Y-103435885D01*
X91595676Y-102150171D01*
X92548057Y-103650171D02*
X92548057Y-102864457D01*
X92500438Y-102721600D01*
X92405200Y-102650171D01*
X92214723Y-102650171D01*
X92119485Y-102721600D01*
X92548057Y-103578742D02*
X92452819Y-103650171D01*
X92214723Y-103650171D01*
X92119485Y-103578742D01*
X92071866Y-103435885D01*
X92071866Y-103293028D01*
X92119485Y-103150171D01*
X92214723Y-103078742D01*
X92452819Y-103078742D01*
X92548057Y-103007314D01*
X93452819Y-103578742D02*
X93357580Y-103650171D01*
X93167104Y-103650171D01*
X93071866Y-103578742D01*
X93024247Y-103507314D01*
X92976628Y-103364457D01*
X92976628Y-102935885D01*
X93024247Y-102793028D01*
X93071866Y-102721600D01*
X93167104Y-102650171D01*
X93357580Y-102650171D01*
X93452819Y-102721600D01*
X93881390Y-103650171D02*
X93881390Y-102150171D01*
X93976628Y-103078742D02*
X94262342Y-103650171D01*
X94262342Y-102650171D02*
X93881390Y-103221600D01*
X133985142Y-69282571D02*
X134913714Y-69282571D01*
X134413714Y-69854000D01*
X134628000Y-69854000D01*
X134770857Y-69925428D01*
X134842285Y-69996857D01*
X134913714Y-70139714D01*
X134913714Y-70496857D01*
X134842285Y-70639714D01*
X134770857Y-70711142D01*
X134628000Y-70782571D01*
X134199428Y-70782571D01*
X134056571Y-70711142D01*
X133985142Y-70639714D01*
X135342285Y-69282571D02*
X135842285Y-70782571D01*
X136342285Y-69282571D01*
X139080761Y-88280000D02*
X137080761Y-88280000D01*
X138509333Y-87780000D01*
X137080761Y-87280000D01*
X139080761Y-87280000D01*
X139080761Y-86565714D02*
X137080761Y-86565714D01*
X139080761Y-85708571D02*
X137937904Y-86351428D01*
X137080761Y-85708571D02*
X138223619Y-86565714D01*
X139080761Y-84208571D02*
X138128380Y-84708571D01*
X139080761Y-85065714D02*
X137080761Y-85065714D01*
X137080761Y-84494285D01*
X137176000Y-84351428D01*
X137271238Y-84280000D01*
X137461714Y-84208571D01*
X137747428Y-84208571D01*
X137937904Y-84280000D01*
X138033142Y-84351428D01*
X138128380Y-84494285D01*
X138128380Y-85065714D01*
X138033142Y-83065714D02*
X138033142Y-83565714D01*
X139080761Y-83565714D02*
X137080761Y-83565714D01*
X137080761Y-82851428D01*
X137080761Y-81994285D02*
X137080761Y-81708571D01*
X137176000Y-81565714D01*
X137366476Y-81422857D01*
X137747428Y-81351428D01*
X138414095Y-81351428D01*
X138795047Y-81422857D01*
X138985523Y-81565714D01*
X139080761Y-81708571D01*
X139080761Y-81994285D01*
X138985523Y-82137142D01*
X138795047Y-82280000D01*
X138414095Y-82351428D01*
X137747428Y-82351428D01*
X137366476Y-82280000D01*
X137176000Y-82137142D01*
X137080761Y-81994285D01*
X137080761Y-80851428D02*
X139080761Y-79851428D01*
X137080761Y-79851428D02*
X139080761Y-80851428D01*
X139080761Y-78494285D02*
X139080761Y-79351428D01*
X139080761Y-78922857D02*
X137080761Y-78922857D01*
X137366476Y-79065714D01*
X137556952Y-79208571D01*
X137652190Y-79351428D01*
X137271238Y-77922857D02*
X137176000Y-77851428D01*
X137080761Y-77708571D01*
X137080761Y-77351428D01*
X137176000Y-77208571D01*
X137271238Y-77137142D01*
X137461714Y-77065714D01*
X137652190Y-77065714D01*
X137937904Y-77137142D01*
X139080761Y-77994285D01*
X139080761Y-77065714D01*
X137080761Y-76137142D02*
X137080761Y-75994285D01*
X137176000Y-75851428D01*
X137271238Y-75780000D01*
X137461714Y-75708571D01*
X137842666Y-75637142D01*
X138318857Y-75637142D01*
X138699809Y-75708571D01*
X138890285Y-75780000D01*
X138985523Y-75851428D01*
X139080761Y-75994285D01*
X139080761Y-76137142D01*
X138985523Y-76280000D01*
X138890285Y-76351428D01*
X138699809Y-76422857D01*
X138318857Y-76494285D01*
X137842666Y-76494285D01*
X137461714Y-76422857D01*
X137271238Y-76351428D01*
X137176000Y-76280000D01*
X137080761Y-76137142D01*
X137080761Y-74708571D02*
X137080761Y-74565714D01*
X137176000Y-74422857D01*
X137271238Y-74351428D01*
X137461714Y-74280000D01*
X137842666Y-74208571D01*
X138318857Y-74208571D01*
X138699809Y-74280000D01*
X138890285Y-74351428D01*
X138985523Y-74422857D01*
X139080761Y-74565714D01*
X139080761Y-74708571D01*
X138985523Y-74851428D01*
X138890285Y-74922857D01*
X138699809Y-74994285D01*
X138318857Y-75065714D01*
X137842666Y-75065714D01*
X137461714Y-74994285D01*
X137271238Y-74922857D01*
X137176000Y-74851428D01*
X137080761Y-74708571D01*
X140462000Y-82169000D02*
X144272000Y-82169000D01*
X140462000Y-75819000D02*
X140462000Y-82169000D01*
X144272000Y-75819000D02*
X140462000Y-75819000D01*
X132080000Y-67945000D02*
X138430000Y-67945000D01*
X132080000Y-72390000D02*
X138430000Y-72390000D01*
X132080000Y-66548000D02*
X132080000Y-72390000D01*
X138430000Y-66548000D02*
X132080000Y-66548000D01*
X138430000Y-72390000D02*
X138430000Y-66548000D01*
D12*
X144272000Y-66548000D02*
X75438000Y-66548000D01*
X144272000Y-91440000D02*
X144272000Y-66548000D01*
X75438000Y-91440000D02*
X144272000Y-91440000D01*
X75438000Y-66548000D02*
X75438000Y-91440000D01*
D13*
X74117200Y-94742000D02*
X71577200Y-94742000D01*
X74117200Y-101092000D02*
X74117200Y-94742000D01*
X71577200Y-101092000D02*
X74117200Y-101092000D01*
X71577200Y-94742000D02*
X71577200Y-101092000D01*
X143052800Y-93472000D02*
X140512800Y-93472000D01*
X143052800Y-99822000D02*
X143052800Y-93472000D01*
X140512800Y-99822000D02*
X143052800Y-99822000D01*
X140512800Y-93472000D02*
X140512800Y-99822000D01*
X87630000Y-90170000D02*
X123190000Y-90170000D01*
X87630000Y-87630000D02*
X87630000Y-90170000D01*
X123190000Y-87630000D02*
X87630000Y-87630000D01*
X123190000Y-90170000D02*
X123190000Y-87630000D01*
X87630000Y-69850000D02*
X123190000Y-69850000D01*
X87630000Y-67310000D02*
X87630000Y-69850000D01*
X123190000Y-67310000D02*
X87630000Y-67310000D01*
X123190000Y-69850000D02*
X123190000Y-67310000D01*
D11*
X73864400Y-87122000D02*
G75*
G02X73864400Y-87022000I0J50000D01*
G01*
X73864400Y-87022000D02*
G75*
G02X73864400Y-87122000I0J-50000D01*
G01*
X73864400Y-87122000D02*
G75*
G02X73864400Y-87022000I0J50000D01*
G01*
X73864400Y-87022000D02*
X73864400Y-87022000D01*
X73864400Y-87122000D02*
X73864400Y-87122000D01*
X73864400Y-87022000D02*
X73864400Y-87022000D01*
D14*
X64014400Y-78472000D02*
X59924400Y-78472000D01*
X64014400Y-78472000D02*
X64014400Y-78472000D01*
X59924400Y-78472000D02*
X64014400Y-78472000D01*
X59924400Y-78472000D02*
X59924400Y-78472000D01*
X59924400Y-90672000D02*
X59924400Y-90672000D01*
X59924400Y-78472000D02*
X59924400Y-90672000D01*
X59924400Y-78472000D02*
X59924400Y-78472000D01*
X59924400Y-90672000D02*
X59924400Y-78472000D01*
X59924400Y-90672000D02*
X64014400Y-90672000D01*
X59924400Y-90672000D02*
X59924400Y-90672000D01*
X64014400Y-90672000D02*
X59924400Y-90672000D01*
X64014400Y-90672000D02*
X64014400Y-90672000D01*
X68014400Y-90672000D02*
X72924400Y-90672000D01*
X68014400Y-90672000D02*
X68014400Y-90672000D01*
X72924400Y-90672000D02*
X68014400Y-90672000D01*
X72924400Y-90672000D02*
X72924400Y-90672000D01*
X72924400Y-78472000D02*
X72924400Y-78472000D01*
X72924400Y-90672000D02*
X72924400Y-78472000D01*
X72924400Y-90672000D02*
X72924400Y-90672000D01*
X72924400Y-78472000D02*
X72924400Y-90672000D01*
X72924400Y-78472000D02*
X68014400Y-78472000D01*
X72924400Y-78472000D02*
X72924400Y-78472000D01*
X68014400Y-78472000D02*
X72924400Y-78472000D01*
X68014400Y-78472000D02*
X68014400Y-78472000D01*
X113995600Y-98294800D02*
G75*
G02X114095600Y-98294800I50000J0D01*
G01*
X114095600Y-98294800D02*
G75*
G02X113995600Y-98294800I-50000J0D01*
G01*
X114095600Y-98294800D02*
X114095600Y-98294800D01*
X113995600Y-98294800D02*
X113995600Y-98294800D01*
D11*
X114555600Y-102594800D02*
X114555600Y-92594800D01*
X125515600Y-102594800D02*
X114555600Y-102594800D01*
X125515600Y-92594800D02*
X125515600Y-102594800D01*
X114555600Y-92594800D02*
X125515600Y-92594800D01*
D13*
X72796400Y-67259200D02*
X70256400Y-67259200D01*
X72796400Y-73609200D02*
X72796400Y-67259200D01*
X70256400Y-73609200D02*
X72796400Y-73609200D01*
X70256400Y-67259200D02*
X70256400Y-73609200D01*
D15*
X77208800Y-101046800D02*
G75*
G02X77280800Y-101046800I36000J0D01*
G01*
X77280800Y-101046800D02*
G75*
G02X77208800Y-101046800I-36000J0D01*
G01*
X77280800Y-101046800D02*
X77280800Y-101046800D01*
X77208800Y-101046800D02*
X77208800Y-101046800D01*
D11*
X76322800Y-98578800D02*
X77499800Y-98578800D01*
X85322800Y-98578800D02*
X84145800Y-98578800D01*
X76322800Y-95578800D02*
X77499800Y-95578800D01*
X85322800Y-95578800D02*
X84145800Y-95578800D01*
X85322800Y-98578800D02*
X85322800Y-95578800D01*
X76322800Y-95578800D02*
X76322800Y-98578800D01*
X101983600Y-100782800D02*
X101983600Y-93882800D01*
X108983600Y-100782800D02*
X101983600Y-100782800D01*
X108983600Y-93882800D02*
X108983600Y-100782800D01*
X101983600Y-93882800D02*
X108983600Y-93882800D01*
X91823600Y-100782800D02*
X91823600Y-93882800D01*
X98823600Y-100782800D02*
X91823600Y-100782800D01*
X98823600Y-93882800D02*
X98823600Y-100782800D01*
X91823600Y-93882800D02*
X98823600Y-93882800D01*
X130547600Y-100956800D02*
X133197600Y-100956800D01*
X130547600Y-94756800D02*
X130547600Y-100956800D01*
X135247600Y-94756800D02*
X130547600Y-94756800D01*
X135247600Y-98856800D02*
X135247600Y-94756800D01*
X126065000Y-76135000D02*
X127590000Y-76135000D01*
X94780000Y-82580000D02*
X94780000Y-79980000D01*
X93180000Y-83290000D02*
X93180000Y-79980000D01*
X94780000Y-74960000D02*
X94780000Y-72360000D01*
X93180000Y-75670000D02*
X93180000Y-72360000D01*
X89192000Y-82580000D02*
X89192000Y-79980000D01*
X87592000Y-83290000D02*
X87592000Y-79980000D01*
X89192000Y-74960000D02*
X89192000Y-72360000D01*
X87592000Y-75670000D02*
X87592000Y-72360000D01*
X84112000Y-82580000D02*
X84112000Y-79980000D01*
X82512000Y-83290000D02*
X82512000Y-79980000D01*
X84112000Y-74960000D02*
X84112000Y-72360000D01*
X82512000Y-75670000D02*
X82512000Y-72360000D01*
X105468000Y-83329000D02*
X105468000Y-82279000D01*
X105496000Y-78757000D02*
X105496000Y-77707000D01*
X105664000Y-74997800D02*
X105664000Y-73947800D01*
D16*
X72756485Y-102569857D02*
X72756485Y-102146523D01*
X73421723Y-101965095D02*
X73421723Y-102569857D01*
X72151723Y-102569857D01*
X72151723Y-101965095D01*
X73421723Y-101541761D02*
X72575057Y-100876523D01*
X72575057Y-101541761D02*
X73421723Y-100876523D01*
X72575057Y-100574142D02*
X72575057Y-100090333D01*
X72151723Y-100392714D02*
X73240295Y-100392714D01*
X73361247Y-100332238D01*
X73421723Y-100211285D01*
X73421723Y-100090333D01*
X73361247Y-99727476D02*
X73421723Y-99546047D01*
X73421723Y-99243666D01*
X73361247Y-99122714D01*
X73300771Y-99062238D01*
X73179819Y-99001761D01*
X73058866Y-99001761D01*
X72937914Y-99062238D01*
X72877438Y-99122714D01*
X72816961Y-99243666D01*
X72756485Y-99485571D01*
X72696009Y-99606523D01*
X72635533Y-99667000D01*
X72514580Y-99727476D01*
X72393628Y-99727476D01*
X72272676Y-99667000D01*
X72212200Y-99606523D01*
X72151723Y-99485571D01*
X72151723Y-99183190D01*
X72212200Y-99001761D01*
X72575057Y-98578428D02*
X73421723Y-98336523D01*
X72816961Y-98094619D01*
X73421723Y-97852714D01*
X72575057Y-97610809D01*
X73421723Y-97127000D02*
X72575057Y-97127000D01*
X72151723Y-97127000D02*
X72212200Y-97187476D01*
X72272676Y-97127000D01*
X72212200Y-97066523D01*
X72151723Y-97127000D01*
X72272676Y-97127000D01*
X72575057Y-96703666D02*
X72575057Y-96219857D01*
X72151723Y-96522238D02*
X73240295Y-96522238D01*
X73361247Y-96461761D01*
X73421723Y-96340809D01*
X73421723Y-96219857D01*
X73361247Y-95252238D02*
X73421723Y-95373190D01*
X73421723Y-95615095D01*
X73361247Y-95736047D01*
X73300771Y-95796523D01*
X73179819Y-95857000D01*
X72816961Y-95857000D01*
X72696009Y-95796523D01*
X72635533Y-95736047D01*
X72575057Y-95615095D01*
X72575057Y-95373190D01*
X72635533Y-95252238D01*
X73421723Y-94707952D02*
X72151723Y-94707952D01*
X73421723Y-94163666D02*
X72756485Y-94163666D01*
X72635533Y-94224142D01*
X72575057Y-94345095D01*
X72575057Y-94526523D01*
X72635533Y-94647476D01*
X72696009Y-94707952D01*
X73421723Y-92893666D02*
X73421723Y-93619380D01*
X73421723Y-93256523D02*
X72151723Y-93256523D01*
X72333152Y-93377476D01*
X72454104Y-93498428D01*
X72514580Y-93619380D01*
X141087323Y-99062238D02*
X141994466Y-99062238D01*
X142175895Y-99122714D01*
X142296847Y-99243666D01*
X142357323Y-99425095D01*
X142357323Y-99546047D01*
X142478276Y-98759857D02*
X142478276Y-97792238D01*
X141692085Y-97066523D02*
X141752561Y-96885095D01*
X141813038Y-96824619D01*
X141933990Y-96764142D01*
X142115419Y-96764142D01*
X142236371Y-96824619D01*
X142296847Y-96885095D01*
X142357323Y-97006047D01*
X142357323Y-97489857D01*
X141087323Y-97489857D01*
X141087323Y-97066523D01*
X141147800Y-96945571D01*
X141208276Y-96885095D01*
X141329228Y-96824619D01*
X141450180Y-96824619D01*
X141571133Y-96885095D01*
X141631609Y-96945571D01*
X141692085Y-97066523D01*
X141692085Y-97489857D01*
X141994466Y-96280333D02*
X141994466Y-95675571D01*
X142357323Y-96401285D02*
X141087323Y-95977952D01*
X142357323Y-95554619D01*
X141087323Y-95312714D02*
X141087323Y-94587000D01*
X142357323Y-94949857D02*
X141087323Y-94949857D01*
X141208276Y-94224142D02*
X141147800Y-94163666D01*
X141087323Y-94042714D01*
X141087323Y-93740333D01*
X141147800Y-93619380D01*
X141208276Y-93558904D01*
X141329228Y-93498428D01*
X141450180Y-93498428D01*
X141631609Y-93558904D01*
X142357323Y-94284619D01*
X142357323Y-93498428D01*
D10*
X85875904Y-89352380D02*
X85875904Y-88352380D01*
X86256857Y-88352380D01*
X86352095Y-88400000D01*
X86399714Y-88447619D01*
X86447333Y-88542857D01*
X86447333Y-88685714D01*
X86399714Y-88780952D01*
X86352095Y-88828571D01*
X86256857Y-88876190D01*
X85875904Y-88876190D01*
X86828285Y-88447619D02*
X86875904Y-88400000D01*
X86971142Y-88352380D01*
X87209238Y-88352380D01*
X87304476Y-88400000D01*
X87352095Y-88447619D01*
X87399714Y-88542857D01*
X87399714Y-88638095D01*
X87352095Y-88780952D01*
X86780666Y-89352380D01*
X87399714Y-89352380D01*
X85621904Y-69032380D02*
X85621904Y-68032380D01*
X86002857Y-68032380D01*
X86098095Y-68080000D01*
X86145714Y-68127619D01*
X86193333Y-68222857D01*
X86193333Y-68365714D01*
X86145714Y-68460952D01*
X86098095Y-68508571D01*
X86002857Y-68556190D01*
X85621904Y-68556190D01*
X87145714Y-69032380D02*
X86574285Y-69032380D01*
X86860000Y-69032380D02*
X86860000Y-68032380D01*
X86764761Y-68175238D01*
X86669523Y-68270476D01*
X86574285Y-68318095D01*
D16*
X73116923Y-89238666D02*
X74024066Y-89238666D01*
X74205495Y-89299142D01*
X74326447Y-89420095D01*
X74386923Y-89601523D01*
X74386923Y-89722476D01*
X74507876Y-88936285D02*
X74507876Y-87968666D01*
X74326447Y-87726761D02*
X74386923Y-87545333D01*
X74386923Y-87242952D01*
X74326447Y-87122000D01*
X74265971Y-87061523D01*
X74145019Y-87001047D01*
X74024066Y-87001047D01*
X73903114Y-87061523D01*
X73842638Y-87122000D01*
X73782161Y-87242952D01*
X73721685Y-87484857D01*
X73661209Y-87605809D01*
X73600733Y-87666285D01*
X73479780Y-87726761D01*
X73358828Y-87726761D01*
X73237876Y-87666285D01*
X73177400Y-87605809D01*
X73116923Y-87484857D01*
X73116923Y-87182476D01*
X73177400Y-87001047D01*
X73721685Y-86456761D02*
X73721685Y-86033428D01*
X74386923Y-85852000D02*
X74386923Y-86456761D01*
X73116923Y-86456761D01*
X73116923Y-85852000D01*
X74386923Y-85307714D02*
X73116923Y-85307714D01*
X74386923Y-84582000D01*
X73116923Y-84582000D01*
X74326447Y-84037714D02*
X74386923Y-83856285D01*
X74386923Y-83553904D01*
X74326447Y-83432952D01*
X74265971Y-83372476D01*
X74145019Y-83312000D01*
X74024066Y-83312000D01*
X73903114Y-83372476D01*
X73842638Y-83432952D01*
X73782161Y-83553904D01*
X73721685Y-83795809D01*
X73661209Y-83916761D01*
X73600733Y-83977238D01*
X73479780Y-84037714D01*
X73358828Y-84037714D01*
X73237876Y-83977238D01*
X73177400Y-83916761D01*
X73116923Y-83795809D01*
X73116923Y-83493428D01*
X73177400Y-83312000D01*
X73116923Y-82525809D02*
X73116923Y-82283904D01*
X73177400Y-82162952D01*
X73298352Y-82042000D01*
X73540257Y-81981523D01*
X73963590Y-81981523D01*
X74205495Y-82042000D01*
X74326447Y-82162952D01*
X74386923Y-82283904D01*
X74386923Y-82525809D01*
X74326447Y-82646761D01*
X74205495Y-82767714D01*
X73963590Y-82828190D01*
X73540257Y-82828190D01*
X73298352Y-82767714D01*
X73177400Y-82646761D01*
X73116923Y-82525809D01*
X74386923Y-80711523D02*
X73782161Y-81134857D01*
X74386923Y-81437238D02*
X73116923Y-81437238D01*
X73116923Y-80953428D01*
X73177400Y-80832476D01*
X73237876Y-80772000D01*
X73358828Y-80711523D01*
X73540257Y-80711523D01*
X73661209Y-80772000D01*
X73721685Y-80832476D01*
X73782161Y-80953428D01*
X73782161Y-81437238D01*
X74386923Y-79502000D02*
X74386923Y-80227714D01*
X74386923Y-79864857D02*
X73116923Y-79864857D01*
X73298352Y-79985809D01*
X73419304Y-80106761D01*
X73479780Y-80227714D01*
X117949171Y-93335323D02*
X117949171Y-94242466D01*
X117888695Y-94423895D01*
X117767742Y-94544847D01*
X117586314Y-94605323D01*
X117465361Y-94605323D01*
X118251552Y-94726276D02*
X119219171Y-94726276D01*
X119521552Y-94605323D02*
X119521552Y-93335323D01*
X120005361Y-93335323D01*
X120126314Y-93395800D01*
X120186790Y-93456276D01*
X120247266Y-93577228D01*
X120247266Y-93758657D01*
X120186790Y-93879609D01*
X120126314Y-93940085D01*
X120005361Y-94000561D01*
X119521552Y-94000561D01*
X120610123Y-93335323D02*
X121033457Y-94605323D01*
X121456790Y-93335323D01*
X122545361Y-94605323D02*
X121819647Y-94605323D01*
X122182504Y-94605323D02*
X122182504Y-93335323D01*
X122061552Y-93516752D01*
X121940600Y-93637704D01*
X121819647Y-93698180D01*
X73167723Y-73912790D02*
X74074866Y-73912790D01*
X74256295Y-73973266D01*
X74377247Y-74094219D01*
X74437723Y-74275647D01*
X74437723Y-74396600D01*
X74558676Y-73610409D02*
X74558676Y-72642790D01*
X74437723Y-72340409D02*
X73167723Y-72340409D01*
X74437723Y-71614695D01*
X73167723Y-71614695D01*
X73167723Y-71191361D02*
X73167723Y-70465647D01*
X74437723Y-70828504D02*
X73167723Y-70828504D01*
X74316771Y-69316600D02*
X74377247Y-69377076D01*
X74437723Y-69558504D01*
X74437723Y-69679457D01*
X74377247Y-69860885D01*
X74256295Y-69981838D01*
X74135342Y-70042314D01*
X73893438Y-70102790D01*
X73712009Y-70102790D01*
X73470104Y-70042314D01*
X73349152Y-69981838D01*
X73228200Y-69860885D01*
X73167723Y-69679457D01*
X73167723Y-69558504D01*
X73228200Y-69377076D01*
X73288676Y-69316600D01*
X74437723Y-68107076D02*
X74437723Y-68832790D01*
X74437723Y-68469933D02*
X73167723Y-68469933D01*
X73349152Y-68590885D01*
X73470104Y-68711838D01*
X73530580Y-68832790D01*
X79129466Y-97594847D02*
X79310895Y-97655323D01*
X79613276Y-97655323D01*
X79734228Y-97594847D01*
X79794704Y-97534371D01*
X79855180Y-97413419D01*
X79855180Y-97292466D01*
X79794704Y-97171514D01*
X79734228Y-97111038D01*
X79613276Y-97050561D01*
X79371371Y-96990085D01*
X79250419Y-96929609D01*
X79189942Y-96869133D01*
X79129466Y-96748180D01*
X79129466Y-96627228D01*
X79189942Y-96506276D01*
X79250419Y-96445800D01*
X79371371Y-96385323D01*
X79673752Y-96385323D01*
X79855180Y-96445800D01*
X80278514Y-96385323D02*
X80580895Y-97655323D01*
X80822800Y-96748180D01*
X81064704Y-97655323D01*
X81367085Y-96385323D01*
X82516133Y-97655323D02*
X81790419Y-97655323D01*
X82153276Y-97655323D02*
X82153276Y-96385323D01*
X82032323Y-96566752D01*
X81911371Y-96687704D01*
X81790419Y-96748180D01*
X121986523Y-78951666D02*
X121381761Y-79375000D01*
X121986523Y-79677380D02*
X120716523Y-79677380D01*
X120716523Y-79193571D01*
X120777000Y-79072619D01*
X120837476Y-79012142D01*
X120958428Y-78951666D01*
X121139857Y-78951666D01*
X121260809Y-79012142D01*
X121321285Y-79072619D01*
X121381761Y-79193571D01*
X121381761Y-79677380D01*
X121260809Y-78225952D02*
X121200333Y-78346904D01*
X121139857Y-78407380D01*
X121018904Y-78467857D01*
X120958428Y-78467857D01*
X120837476Y-78407380D01*
X120777000Y-78346904D01*
X120716523Y-78225952D01*
X120716523Y-77984047D01*
X120777000Y-77863095D01*
X120837476Y-77802619D01*
X120958428Y-77742142D01*
X121018904Y-77742142D01*
X121139857Y-77802619D01*
X121200333Y-77863095D01*
X121260809Y-77984047D01*
X121260809Y-78225952D01*
X121321285Y-78346904D01*
X121381761Y-78407380D01*
X121502714Y-78467857D01*
X121744619Y-78467857D01*
X121865571Y-78407380D01*
X121926047Y-78346904D01*
X121986523Y-78225952D01*
X121986523Y-77984047D01*
X121926047Y-77863095D01*
X121865571Y-77802619D01*
X121744619Y-77742142D01*
X121502714Y-77742142D01*
X121381761Y-77802619D01*
X121321285Y-77863095D01*
X121260809Y-77984047D01*
X111040333Y-83124523D02*
X110617000Y-82519761D01*
X110314619Y-83124523D02*
X110314619Y-81854523D01*
X110798428Y-81854523D01*
X110919380Y-81915000D01*
X110979857Y-81975476D01*
X111040333Y-82096428D01*
X111040333Y-82277857D01*
X110979857Y-82398809D01*
X110919380Y-82459285D01*
X110798428Y-82519761D01*
X110314619Y-82519761D01*
X111463666Y-81854523D02*
X112310333Y-81854523D01*
X111766047Y-83124523D01*
X119700523Y-75903666D02*
X119095761Y-76327000D01*
X119700523Y-76629380D02*
X118430523Y-76629380D01*
X118430523Y-76145571D01*
X118491000Y-76024619D01*
X118551476Y-75964142D01*
X118672428Y-75903666D01*
X118853857Y-75903666D01*
X118974809Y-75964142D01*
X119035285Y-76024619D01*
X119095761Y-76145571D01*
X119095761Y-76629380D01*
X118430523Y-74815095D02*
X118430523Y-75057000D01*
X118491000Y-75177952D01*
X118551476Y-75238428D01*
X118732904Y-75359380D01*
X118974809Y-75419857D01*
X119458619Y-75419857D01*
X119579571Y-75359380D01*
X119640047Y-75298904D01*
X119700523Y-75177952D01*
X119700523Y-74936047D01*
X119640047Y-74815095D01*
X119579571Y-74754619D01*
X119458619Y-74694142D01*
X119156238Y-74694142D01*
X119035285Y-74754619D01*
X118974809Y-74815095D01*
X118914333Y-74936047D01*
X118914333Y-75177952D01*
X118974809Y-75298904D01*
X119035285Y-75359380D01*
X119156238Y-75419857D01*
X119954523Y-81491666D02*
X119349761Y-81915000D01*
X119954523Y-82217380D02*
X118684523Y-82217380D01*
X118684523Y-81733571D01*
X118745000Y-81612619D01*
X118805476Y-81552142D01*
X118926428Y-81491666D01*
X119107857Y-81491666D01*
X119228809Y-81552142D01*
X119289285Y-81612619D01*
X119349761Y-81733571D01*
X119349761Y-82217380D01*
X118684523Y-80342619D02*
X118684523Y-80947380D01*
X119289285Y-81007857D01*
X119228809Y-80947380D01*
X119168333Y-80826428D01*
X119168333Y-80524047D01*
X119228809Y-80403095D01*
X119289285Y-80342619D01*
X119410238Y-80282142D01*
X119712619Y-80282142D01*
X119833571Y-80342619D01*
X119894047Y-80403095D01*
X119954523Y-80524047D01*
X119954523Y-80826428D01*
X119894047Y-80947380D01*
X119833571Y-81007857D01*
X111040333Y-78806523D02*
X110617000Y-78201761D01*
X110314619Y-78806523D02*
X110314619Y-77536523D01*
X110798428Y-77536523D01*
X110919380Y-77597000D01*
X110979857Y-77657476D01*
X111040333Y-77778428D01*
X111040333Y-77959857D01*
X110979857Y-78080809D01*
X110919380Y-78141285D01*
X110798428Y-78201761D01*
X110314619Y-78201761D01*
X112128904Y-77959857D02*
X112128904Y-78806523D01*
X111826523Y-77476047D02*
X111524142Y-78383190D01*
X112310333Y-78383190D01*
X100880333Y-81600523D02*
X100457000Y-80995761D01*
X100154619Y-81600523D02*
X100154619Y-80330523D01*
X100638428Y-80330523D01*
X100759380Y-80391000D01*
X100819857Y-80451476D01*
X100880333Y-80572428D01*
X100880333Y-80753857D01*
X100819857Y-80874809D01*
X100759380Y-80935285D01*
X100638428Y-80995761D01*
X100154619Y-80995761D01*
X101303666Y-80330523D02*
X102089857Y-80330523D01*
X101666523Y-80814333D01*
X101847952Y-80814333D01*
X101968904Y-80874809D01*
X102029380Y-80935285D01*
X102089857Y-81056238D01*
X102089857Y-81358619D01*
X102029380Y-81479571D01*
X101968904Y-81540047D01*
X101847952Y-81600523D01*
X101485095Y-81600523D01*
X101364142Y-81540047D01*
X101303666Y-81479571D01*
X98848333Y-77028523D02*
X98425000Y-76423761D01*
X98122619Y-77028523D02*
X98122619Y-75758523D01*
X98606428Y-75758523D01*
X98727380Y-75819000D01*
X98787857Y-75879476D01*
X98848333Y-76000428D01*
X98848333Y-76181857D01*
X98787857Y-76302809D01*
X98727380Y-76363285D01*
X98606428Y-76423761D01*
X98122619Y-76423761D01*
X99332142Y-75879476D02*
X99392619Y-75819000D01*
X99513571Y-75758523D01*
X99815952Y-75758523D01*
X99936904Y-75819000D01*
X99997380Y-75879476D01*
X100057857Y-76000428D01*
X100057857Y-76121380D01*
X99997380Y-76302809D01*
X99271666Y-77028523D01*
X100057857Y-77028523D01*
X99813533Y-72862923D02*
X99390200Y-72258161D01*
X99087819Y-72862923D02*
X99087819Y-71592923D01*
X99571628Y-71592923D01*
X99692580Y-71653400D01*
X99753057Y-71713876D01*
X99813533Y-71834828D01*
X99813533Y-72016257D01*
X99753057Y-72137209D01*
X99692580Y-72197685D01*
X99571628Y-72258161D01*
X99087819Y-72258161D01*
X101023057Y-72862923D02*
X100297342Y-72862923D01*
X100660200Y-72862923D02*
X100660200Y-71592923D01*
X100539247Y-71774352D01*
X100418295Y-71895304D01*
X100297342Y-71955780D01*
X103975504Y-92573323D02*
X103975504Y-93480466D01*
X103915028Y-93661895D01*
X103794076Y-93782847D01*
X103612647Y-93843323D01*
X103491695Y-93843323D01*
X104519790Y-93782847D02*
X104701219Y-93843323D01*
X105003600Y-93843323D01*
X105124552Y-93782847D01*
X105185028Y-93722371D01*
X105245504Y-93601419D01*
X105245504Y-93480466D01*
X105185028Y-93359514D01*
X105124552Y-93299038D01*
X105003600Y-93238561D01*
X104761695Y-93178085D01*
X104640742Y-93117609D01*
X104580266Y-93057133D01*
X104519790Y-92936180D01*
X104519790Y-92815228D01*
X104580266Y-92694276D01*
X104640742Y-92633800D01*
X104761695Y-92573323D01*
X105064076Y-92573323D01*
X105245504Y-92633800D01*
X105729314Y-92694276D02*
X105789790Y-92633800D01*
X105910742Y-92573323D01*
X106213123Y-92573323D01*
X106334076Y-92633800D01*
X106394552Y-92694276D01*
X106455028Y-92815228D01*
X106455028Y-92936180D01*
X106394552Y-93117609D01*
X105668838Y-93843323D01*
X106455028Y-93843323D01*
X94577504Y-92319323D02*
X94577504Y-93226466D01*
X94517028Y-93407895D01*
X94396076Y-93528847D01*
X94214647Y-93589323D01*
X94093695Y-93589323D01*
X95121790Y-93528847D02*
X95303219Y-93589323D01*
X95605600Y-93589323D01*
X95726552Y-93528847D01*
X95787028Y-93468371D01*
X95847504Y-93347419D01*
X95847504Y-93226466D01*
X95787028Y-93105514D01*
X95726552Y-93045038D01*
X95605600Y-92984561D01*
X95363695Y-92924085D01*
X95242742Y-92863609D01*
X95182266Y-92803133D01*
X95121790Y-92682180D01*
X95121790Y-92561228D01*
X95182266Y-92440276D01*
X95242742Y-92379800D01*
X95363695Y-92319323D01*
X95666076Y-92319323D01*
X95847504Y-92379800D01*
X97057028Y-93589323D02*
X96331314Y-93589323D01*
X96694171Y-93589323D02*
X96694171Y-92319323D01*
X96573219Y-92500752D01*
X96452266Y-92621704D01*
X96331314Y-92682180D01*
X130724123Y-100665038D02*
X131631266Y-100665038D01*
X131812695Y-100725514D01*
X131933647Y-100846466D01*
X131994123Y-101027895D01*
X131994123Y-101148847D01*
X132115076Y-100362657D02*
X132115076Y-99395038D01*
X131328885Y-98669323D02*
X131389361Y-98487895D01*
X131449838Y-98427419D01*
X131570790Y-98366942D01*
X131752219Y-98366942D01*
X131873171Y-98427419D01*
X131933647Y-98487895D01*
X131994123Y-98608847D01*
X131994123Y-99092657D01*
X130724123Y-99092657D01*
X130724123Y-98669323D01*
X130784600Y-98548371D01*
X130845076Y-98487895D01*
X130966028Y-98427419D01*
X131086980Y-98427419D01*
X131207933Y-98487895D01*
X131268409Y-98548371D01*
X131328885Y-98669323D01*
X131328885Y-99092657D01*
X131631266Y-97883133D02*
X131631266Y-97278371D01*
X131994123Y-98004085D02*
X130724123Y-97580752D01*
X131994123Y-97157419D01*
X130724123Y-96915514D02*
X130724123Y-96189800D01*
X131994123Y-96552657D02*
X130724123Y-96552657D01*
X131994123Y-95101228D02*
X131994123Y-95826942D01*
X131994123Y-95464085D02*
X130724123Y-95464085D01*
X130905552Y-95585038D01*
X131026504Y-95705990D01*
X131086980Y-95826942D01*
X129062238Y-75250523D02*
X129062238Y-73980523D01*
X130392714Y-75129571D02*
X130332238Y-75190047D01*
X130150809Y-75250523D01*
X130029857Y-75250523D01*
X129848428Y-75190047D01*
X129727476Y-75069095D01*
X129667000Y-74948142D01*
X129606523Y-74706238D01*
X129606523Y-74524809D01*
X129667000Y-74282904D01*
X129727476Y-74161952D01*
X129848428Y-74041000D01*
X130029857Y-73980523D01*
X130150809Y-73980523D01*
X130332238Y-74041000D01*
X130392714Y-74101476D01*
X131602238Y-75250523D02*
X130876523Y-75250523D01*
X131239380Y-75250523D02*
X131239380Y-73980523D01*
X131118428Y-74161952D01*
X130997476Y-74282904D01*
X130876523Y-74343380D01*
X92522523Y-82217380D02*
X91252523Y-82217380D01*
X91252523Y-81915000D01*
X91313000Y-81733571D01*
X91433952Y-81612619D01*
X91554904Y-81552142D01*
X91796809Y-81491666D01*
X91978238Y-81491666D01*
X92220142Y-81552142D01*
X92341095Y-81612619D01*
X92462047Y-81733571D01*
X92522523Y-81915000D01*
X92522523Y-82217380D01*
X91252523Y-80403095D02*
X91252523Y-80645000D01*
X91313000Y-80765952D01*
X91373476Y-80826428D01*
X91554904Y-80947380D01*
X91796809Y-81007857D01*
X92280619Y-81007857D01*
X92401571Y-80947380D01*
X92462047Y-80886904D01*
X92522523Y-80765952D01*
X92522523Y-80524047D01*
X92462047Y-80403095D01*
X92401571Y-80342619D01*
X92280619Y-80282142D01*
X91978238Y-80282142D01*
X91857285Y-80342619D01*
X91796809Y-80403095D01*
X91736333Y-80524047D01*
X91736333Y-80765952D01*
X91796809Y-80886904D01*
X91857285Y-80947380D01*
X91978238Y-81007857D01*
X92522523Y-74597380D02*
X91252523Y-74597380D01*
X91252523Y-74295000D01*
X91313000Y-74113571D01*
X91433952Y-73992619D01*
X91554904Y-73932142D01*
X91796809Y-73871666D01*
X91978238Y-73871666D01*
X92220142Y-73932142D01*
X92341095Y-73992619D01*
X92462047Y-74113571D01*
X92522523Y-74295000D01*
X92522523Y-74597380D01*
X91252523Y-72722619D02*
X91252523Y-73327380D01*
X91857285Y-73387857D01*
X91796809Y-73327380D01*
X91736333Y-73206428D01*
X91736333Y-72904047D01*
X91796809Y-72783095D01*
X91857285Y-72722619D01*
X91978238Y-72662142D01*
X92280619Y-72662142D01*
X92401571Y-72722619D01*
X92462047Y-72783095D01*
X92522523Y-72904047D01*
X92522523Y-73206428D01*
X92462047Y-73327380D01*
X92401571Y-73387857D01*
X87188523Y-82217380D02*
X85918523Y-82217380D01*
X85918523Y-81915000D01*
X85979000Y-81733571D01*
X86099952Y-81612619D01*
X86220904Y-81552142D01*
X86462809Y-81491666D01*
X86644238Y-81491666D01*
X86886142Y-81552142D01*
X87007095Y-81612619D01*
X87128047Y-81733571D01*
X87188523Y-81915000D01*
X87188523Y-82217380D01*
X86341857Y-80403095D02*
X87188523Y-80403095D01*
X85858047Y-80705476D02*
X86765190Y-81007857D01*
X86765190Y-80221666D01*
X86934523Y-74597380D02*
X85664523Y-74597380D01*
X85664523Y-74295000D01*
X85725000Y-74113571D01*
X85845952Y-73992619D01*
X85966904Y-73932142D01*
X86208809Y-73871666D01*
X86390238Y-73871666D01*
X86632142Y-73932142D01*
X86753095Y-73992619D01*
X86874047Y-74113571D01*
X86934523Y-74295000D01*
X86934523Y-74597380D01*
X85664523Y-73448333D02*
X85664523Y-72662142D01*
X86148333Y-73085476D01*
X86148333Y-72904047D01*
X86208809Y-72783095D01*
X86269285Y-72722619D01*
X86390238Y-72662142D01*
X86692619Y-72662142D01*
X86813571Y-72722619D01*
X86874047Y-72783095D01*
X86934523Y-72904047D01*
X86934523Y-73266904D01*
X86874047Y-73387857D01*
X86813571Y-73448333D01*
X81854523Y-80693380D02*
X80584523Y-80693380D01*
X80584523Y-80391000D01*
X80645000Y-80209571D01*
X80765952Y-80088619D01*
X80886904Y-80028142D01*
X81128809Y-79967666D01*
X81310238Y-79967666D01*
X81552142Y-80028142D01*
X81673095Y-80088619D01*
X81794047Y-80209571D01*
X81854523Y-80391000D01*
X81854523Y-80693380D01*
X80705476Y-79483857D02*
X80645000Y-79423380D01*
X80584523Y-79302428D01*
X80584523Y-79000047D01*
X80645000Y-78879095D01*
X80705476Y-78818619D01*
X80826428Y-78758142D01*
X80947380Y-78758142D01*
X81128809Y-78818619D01*
X81854523Y-79544333D01*
X81854523Y-78758142D01*
X81600523Y-75105380D02*
X80330523Y-75105380D01*
X80330523Y-74803000D01*
X80391000Y-74621571D01*
X80511952Y-74500619D01*
X80632904Y-74440142D01*
X80874809Y-74379666D01*
X81056238Y-74379666D01*
X81298142Y-74440142D01*
X81419095Y-74500619D01*
X81540047Y-74621571D01*
X81600523Y-74803000D01*
X81600523Y-75105380D01*
X81600523Y-73170142D02*
X81600523Y-73895857D01*
X81600523Y-73533000D02*
X80330523Y-73533000D01*
X80511952Y-73653952D01*
X80632904Y-73774904D01*
X80693380Y-73895857D01*
X127296333Y-71065571D02*
X127235857Y-71126047D01*
X127054428Y-71186523D01*
X126933476Y-71186523D01*
X126752047Y-71126047D01*
X126631095Y-71005095D01*
X126570619Y-70884142D01*
X126510142Y-70642238D01*
X126510142Y-70460809D01*
X126570619Y-70218904D01*
X126631095Y-70097952D01*
X126752047Y-69977000D01*
X126933476Y-69916523D01*
X127054428Y-69916523D01*
X127235857Y-69977000D01*
X127296333Y-70037476D01*
X128445380Y-69916523D02*
X127840619Y-69916523D01*
X127780142Y-70521285D01*
X127840619Y-70460809D01*
X127961571Y-70400333D01*
X128263952Y-70400333D01*
X128384904Y-70460809D01*
X128445380Y-70521285D01*
X128505857Y-70642238D01*
X128505857Y-70944619D01*
X128445380Y-71065571D01*
X128384904Y-71126047D01*
X128263952Y-71186523D01*
X127961571Y-71186523D01*
X127840619Y-71126047D01*
X127780142Y-71065571D01*
X128020333Y-87321571D02*
X127959857Y-87382047D01*
X127778428Y-87442523D01*
X127657476Y-87442523D01*
X127476047Y-87382047D01*
X127355095Y-87261095D01*
X127294619Y-87140142D01*
X127234142Y-86898238D01*
X127234142Y-86716809D01*
X127294619Y-86474904D01*
X127355095Y-86353952D01*
X127476047Y-86233000D01*
X127657476Y-86172523D01*
X127778428Y-86172523D01*
X127959857Y-86233000D01*
X128020333Y-86293476D01*
X129108904Y-86595857D02*
X129108904Y-87442523D01*
X128806523Y-86112047D02*
X128504142Y-87019190D01*
X129290333Y-87019190D01*
X105198333Y-81225571D02*
X105137857Y-81286047D01*
X104956428Y-81346523D01*
X104835476Y-81346523D01*
X104654047Y-81286047D01*
X104533095Y-81165095D01*
X104472619Y-81044142D01*
X104412142Y-80802238D01*
X104412142Y-80620809D01*
X104472619Y-80378904D01*
X104533095Y-80257952D01*
X104654047Y-80137000D01*
X104835476Y-80076523D01*
X104956428Y-80076523D01*
X105137857Y-80137000D01*
X105198333Y-80197476D01*
X105621666Y-80076523D02*
X106407857Y-80076523D01*
X105984523Y-80560333D01*
X106165952Y-80560333D01*
X106286904Y-80620809D01*
X106347380Y-80681285D01*
X106407857Y-80802238D01*
X106407857Y-81104619D01*
X106347380Y-81225571D01*
X106286904Y-81286047D01*
X106165952Y-81346523D01*
X105803095Y-81346523D01*
X105682142Y-81286047D01*
X105621666Y-81225571D01*
X105198333Y-76653571D02*
X105137857Y-76714047D01*
X104956428Y-76774523D01*
X104835476Y-76774523D01*
X104654047Y-76714047D01*
X104533095Y-76593095D01*
X104472619Y-76472142D01*
X104412142Y-76230238D01*
X104412142Y-76048809D01*
X104472619Y-75806904D01*
X104533095Y-75685952D01*
X104654047Y-75565000D01*
X104835476Y-75504523D01*
X104956428Y-75504523D01*
X105137857Y-75565000D01*
X105198333Y-75625476D01*
X105682142Y-75625476D02*
X105742619Y-75565000D01*
X105863571Y-75504523D01*
X106165952Y-75504523D01*
X106286904Y-75565000D01*
X106347380Y-75625476D01*
X106407857Y-75746428D01*
X106407857Y-75867380D01*
X106347380Y-76048809D01*
X105621666Y-76774523D01*
X106407857Y-76774523D01*
X105198333Y-73090371D02*
X105137857Y-73150847D01*
X104956428Y-73211323D01*
X104835476Y-73211323D01*
X104654047Y-73150847D01*
X104533095Y-73029895D01*
X104472619Y-72908942D01*
X104412142Y-72667038D01*
X104412142Y-72485609D01*
X104472619Y-72243704D01*
X104533095Y-72122752D01*
X104654047Y-72001800D01*
X104835476Y-71941323D01*
X104956428Y-71941323D01*
X105137857Y-72001800D01*
X105198333Y-72062276D01*
X106407857Y-73211323D02*
X105682142Y-73211323D01*
X106045000Y-73211323D02*
X106045000Y-71941323D01*
X105924047Y-72122752D01*
X105803095Y-72243704D01*
X105682142Y-72304180D01*
%LPC*%
D17*
X72847200Y-99512000D03*
X72847200Y-96012000D03*
X141782800Y-98242000D03*
X141782800Y-94742000D03*
D18*
X88900000Y-88900000D03*
X91440000Y-88900000D03*
X93980000Y-88900000D03*
X96520000Y-88900000D03*
X99060000Y-88900000D03*
X101600000Y-88900000D03*
X104140000Y-88900000D03*
X106680000Y-88900000D03*
X109220000Y-88900000D03*
X111760000Y-88900000D03*
X114300000Y-88900000D03*
X116840000Y-88900000D03*
X119380000Y-88900000D03*
X121920000Y-88900000D03*
X88900000Y-68580000D03*
X91440000Y-68580000D03*
X93980000Y-68580000D03*
X96520000Y-68580000D03*
X99060000Y-68580000D03*
X101600000Y-68580000D03*
X104140000Y-68580000D03*
X106680000Y-68580000D03*
X109220000Y-68580000D03*
X111760000Y-68580000D03*
X114300000Y-68580000D03*
X116840000Y-68580000D03*
X119380000Y-68580000D03*
X121920000Y-68580000D03*
D19*
X68224400Y-82022000D03*
X70764400Y-83042000D03*
X68224400Y-84062000D03*
X70764400Y-85082000D03*
X68224400Y-86102000D03*
X70764400Y-87122000D03*
D20*
X122275600Y-98094800D03*
X117195600Y-98094800D03*
D17*
X71526400Y-72029200D03*
X71526400Y-68529200D03*
D21*
X78322800Y-94328800D03*
X80822800Y-94328800D03*
X83322800Y-94328800D03*
X83322800Y-99828800D03*
X80822800Y-99828800D03*
X78322800Y-99828800D03*
D22*
X122936000Y-78190000D03*
X122936000Y-79290000D03*
D23*
X111802000Y-80772000D03*
X110702000Y-80772000D03*
D22*
X117348000Y-75142000D03*
X117348000Y-76242000D03*
X117348000Y-80730000D03*
X117348000Y-81830000D03*
D23*
X110744000Y-76708000D03*
X111844000Y-76708000D03*
X100626000Y-82804000D03*
X99526000Y-82804000D03*
X100626000Y-78232000D03*
X99526000Y-78232000D03*
X100575200Y-74066400D03*
X99475200Y-74066400D03*
D17*
X107233600Y-97332800D03*
X103733600Y-97332800D03*
X97073600Y-97332800D03*
X93573600Y-97332800D03*
D24*
X133197600Y-96856800D03*
D25*
X133197600Y-98856800D03*
D26*
X129540000Y-78740000D03*
D27*
X132252000Y-76835000D03*
X132252000Y-78105000D03*
X132252000Y-79375000D03*
X132252000Y-80645000D03*
X126828000Y-80645000D03*
X126828000Y-79375000D03*
X126828000Y-78105000D03*
X126828000Y-76835000D03*
D28*
X93980000Y-79680000D03*
X93980000Y-82880000D03*
X93980000Y-72060000D03*
X93980000Y-75260000D03*
X88392000Y-79680000D03*
X88392000Y-82880000D03*
X88392000Y-72060000D03*
X88392000Y-75260000D03*
X83312000Y-79680000D03*
X83312000Y-82880000D03*
X83312000Y-72060000D03*
X83312000Y-75260000D03*
D29*
X128308000Y-72644000D03*
X126708000Y-72644000D03*
X129032000Y-84836000D03*
X127432000Y-84836000D03*
D30*
X104648000Y-82804000D03*
X106288000Y-82804000D03*
X104676000Y-78232000D03*
X106316000Y-78232000D03*
X104844000Y-74472800D03*
X106484000Y-74472800D03*
M02*
