M48
; DRILL file {KiCad 5.1.5+dfsg1-2build2} date ven. 22 avril 2022 12:54:53
; FORMAT={-:-/ absolute / metric / decimal}
; #@! TF.CreationDate,2022-04-22T12:54:53+02:00
; #@! TF.GenerationSoftware,Kicad,Pcbnew,5.1.5+dfsg1-2build2
; #@! TF.FileFunction,Plated,1,2,PTH
FMAT,2
METRIC
T1C0.400
T2C0.762
T3C0.900
T4C0.950
T5C1.000
T6C1.200
%
G90
G05
T1
X73.914Y-80.264
X73.914Y-84.785
X73.931Y-87.082
X76.911Y-84.785
X76.911Y-87.071
X77.013Y-80.315
X77.724Y-91.135
X81.972Y-91.612
X85.344Y-75.184
X85.344Y-79.756
X85.344Y-93.98
X90.348Y-75.26
X90.348Y-79.68
X95.936Y-79.68
X96.012Y-75.26
X97.536Y-79.756
X98.044Y-71.374
X99.314Y-80.01
X100.33Y-84.582
X100.584Y-76.2
X102.42Y-74.066
X108.204Y-72.39
X108.204Y-80.772
X110.744Y-70.358
X110.744Y-75.184
X110.998Y-78.486
X112.014Y-72.644
X112.522Y-84.836
X113.284Y-75.692
X114.23Y-83.75
X126.608Y-86.868
X131.064Y-84.836
X134.112Y-76.708
T2
X88.9Y-68.58
X91.44Y-68.58
X93.98Y-68.58
X96.52Y-68.58
X99.06Y-68.58
X101.6Y-68.58
X104.14Y-68.58
X106.68Y-68.58
X109.22Y-68.58
X111.76Y-68.58
X114.3Y-68.58
X116.84Y-68.58
X119.38Y-68.58
X121.92Y-68.58
X88.9Y-88.9
X91.44Y-88.9
X93.98Y-88.9
X96.52Y-88.9
X99.06Y-88.9
X101.6Y-88.9
X104.14Y-88.9
X106.68Y-88.9
X109.22Y-88.9
X111.76Y-88.9
X114.3Y-88.9
X116.84Y-88.9
X119.38Y-88.9
X121.92Y-88.9
T3
X68.224Y-82.022
X68.224Y-84.062
X68.224Y-86.102
X70.764Y-83.042
X70.764Y-85.082
X70.764Y-87.122
T4
X133.198Y-96.857
X133.198Y-98.857
T5
X72.847Y-96.012
X72.847Y-99.512
X103.734Y-97.333
X107.234Y-97.333
X93.574Y-97.333
X97.074Y-97.333
X141.783Y-94.742
X141.783Y-98.242
X71.526Y-68.529
X71.526Y-72.029
T6
X117.196Y-98.095
X122.276Y-98.095
T0
M30
