G04 #@! TF.GenerationSoftware,KiCad,Pcbnew,5.1.5+dfsg1-2build2*
G04 #@! TF.CreationDate,2022-04-22T12:54:42+02:00*
G04 #@! TF.ProjectId,Shield,53686965-6c64-42e6-9b69-6361645f7063,1.0*
G04 #@! TF.SameCoordinates,Original*
G04 #@! TF.FileFunction,Soldermask,Bot*
G04 #@! TF.FilePolarity,Negative*
%FSLAX46Y46*%
G04 Gerber Fmt 4.6, Leading zero omitted, Abs format (unit mm)*
G04 Created by KiCad (PCBNEW 5.1.5+dfsg1-2build2) date 2022-04-22 12:54:42*
%MOMM*%
%LPD*%
G04 APERTURE LIST*
%ADD10C,1.500000*%
%ADD11C,1.524000*%
%ADD12C,1.400000*%
%ADD13C,1.800000*%
%ADD14C,1.425000*%
%ADD15R,1.425000X1.425000*%
G04 APERTURE END LIST*
D10*
X72847200Y-99512000D03*
X72847200Y-96012000D03*
X141782800Y-98242000D03*
X141782800Y-94742000D03*
D11*
X88900000Y-88900000D03*
X91440000Y-88900000D03*
X93980000Y-88900000D03*
X96520000Y-88900000D03*
X99060000Y-88900000D03*
X101600000Y-88900000D03*
X104140000Y-88900000D03*
X106680000Y-88900000D03*
X109220000Y-88900000D03*
X111760000Y-88900000D03*
X114300000Y-88900000D03*
X116840000Y-88900000D03*
X119380000Y-88900000D03*
X121920000Y-88900000D03*
X88900000Y-68580000D03*
X91440000Y-68580000D03*
X93980000Y-68580000D03*
X96520000Y-68580000D03*
X99060000Y-68580000D03*
X101600000Y-68580000D03*
X104140000Y-68580000D03*
X106680000Y-68580000D03*
X109220000Y-68580000D03*
X111760000Y-68580000D03*
X114300000Y-68580000D03*
X116840000Y-68580000D03*
X119380000Y-68580000D03*
X121920000Y-68580000D03*
D12*
X68224400Y-82022000D03*
X70764400Y-83042000D03*
X68224400Y-84062000D03*
X70764400Y-85082000D03*
X68224400Y-86102000D03*
X70764400Y-87122000D03*
D13*
X122275600Y-98094800D03*
X117195600Y-98094800D03*
D10*
X71526400Y-72029200D03*
X71526400Y-68529200D03*
X107233600Y-97332800D03*
X103733600Y-97332800D03*
X97073600Y-97332800D03*
X93573600Y-97332800D03*
D14*
X133197600Y-96856800D03*
D15*
X133197600Y-98856800D03*
M02*
