%FSLAX45Y45*%
G04 Gerber Fmt 4.5, Leading zero omitted, Abs format (unit mm)*
G04 Created by KiCad (PCBNEW 5.1.5+dfsg1-2build2) date 2022-04-22 12:54:55*
%MOMM*%
%LPD*%
G04 APERTURE LIST*
%TA.AperFunction,Profile*%
%ADD10C,0.100000*%
%TD*%
%ADD11C,0.200000*%
%ADD12C,0.300000*%
G04 APERTURE END LIST*
D10*
X6319520Y-6604000D02*
X7467600Y-6604000D01*
X6314440Y-10571480D02*
X6319520Y-6604000D01*
X14478000Y-6604000D02*
X14472920Y-10571480D01*
X7467600Y-6604000D02*
X14478000Y-6604000D01*
X6314440Y-10571480D02*
X14472920Y-10571480D01*
X6786880Y-6908800D02*
G75*
G03X6786880Y-6908800I-152400J0D01*
G01*
X6863080Y-10261600D02*
G75*
G03X6863080Y-10261600I-152400J0D01*
G01*
X14325600Y-10261600D02*
G75*
G03X14325600Y-10261600I-152400J0D01*
G01*
X14325600Y-6893560D02*
G75*
G03X14325600Y-6893560I-152400J0D01*
G01*
D11*
X7371400Y-8006400D02*
X7411400Y-8046400D01*
X7411400Y-8006400D02*
X7371400Y-8046400D01*
X7371400Y-8458520D02*
X7411400Y-8498520D01*
X7411400Y-8458520D02*
X7371400Y-8498520D01*
X7373113Y-8688216D02*
X7413113Y-8728216D01*
X7413113Y-8688216D02*
X7373113Y-8728216D01*
X7671120Y-8458520D02*
X7711120Y-8498520D01*
X7711120Y-8458520D02*
X7671120Y-8498520D01*
X7671120Y-8687120D02*
X7711120Y-8727120D01*
X7711120Y-8687120D02*
X7671120Y-8727120D01*
X7681280Y-8011480D02*
X7721280Y-8051480D01*
X7721280Y-8011480D02*
X7681280Y-8051480D01*
X7752400Y-9093520D02*
X7792400Y-9133520D01*
X7792400Y-9093520D02*
X7752400Y-9133520D01*
X8177160Y-9141200D02*
X8217160Y-9181200D01*
X8217160Y-9141200D02*
X8177160Y-9181200D01*
X8514400Y-7498400D02*
X8554400Y-7538400D01*
X8554400Y-7498400D02*
X8514400Y-7538400D01*
X8514400Y-7955600D02*
X8554400Y-7995600D01*
X8554400Y-7955600D02*
X8514400Y-7995600D01*
X8514400Y-9378000D02*
X8554400Y-9418000D01*
X8554400Y-9378000D02*
X8514400Y-9418000D01*
X9014800Y-7506000D02*
X9054800Y-7546000D01*
X9054800Y-7506000D02*
X9014800Y-7546000D01*
X9014800Y-7948000D02*
X9054800Y-7988000D01*
X9054800Y-7948000D02*
X9014800Y-7988000D01*
X9573600Y-7948000D02*
X9613600Y-7988000D01*
X9613600Y-7948000D02*
X9573600Y-7988000D01*
X9581200Y-7506000D02*
X9621200Y-7546000D01*
X9621200Y-7506000D02*
X9581200Y-7546000D01*
X9733600Y-7955600D02*
X9773600Y-7995600D01*
X9773600Y-7955600D02*
X9733600Y-7995600D01*
X9784400Y-7117400D02*
X9824400Y-7157400D01*
X9824400Y-7117400D02*
X9784400Y-7157400D01*
X9911400Y-7981000D02*
X9951400Y-8021000D01*
X9951400Y-7981000D02*
X9911400Y-8021000D01*
X10013000Y-8438200D02*
X10053000Y-8478200D01*
X10053000Y-8438200D02*
X10013000Y-8478200D01*
X10038400Y-7600000D02*
X10078400Y-7640000D01*
X10078400Y-7600000D02*
X10038400Y-7640000D01*
X10222000Y-7386640D02*
X10262000Y-7426640D01*
X10262000Y-7386640D02*
X10222000Y-7426640D01*
X10800400Y-7219000D02*
X10840400Y-7259000D01*
X10840400Y-7219000D02*
X10800400Y-7259000D01*
X10800400Y-8057200D02*
X10840400Y-8097200D01*
X10840400Y-8057200D02*
X10800400Y-8097200D01*
X11054400Y-7015800D02*
X11094400Y-7055800D01*
X11094400Y-7015800D02*
X11054400Y-7055800D01*
X11054400Y-7498400D02*
X11094400Y-7538400D01*
X11094400Y-7498400D02*
X11054400Y-7538400D01*
X11079800Y-7828600D02*
X11119800Y-7868600D01*
X11119800Y-7828600D02*
X11079800Y-7868600D01*
X11181400Y-7244400D02*
X11221400Y-7284400D01*
X11221400Y-7244400D02*
X11181400Y-7284400D01*
X11232200Y-8463600D02*
X11272200Y-8503600D01*
X11272200Y-8463600D02*
X11232200Y-8503600D01*
X11308400Y-7549200D02*
X11348400Y-7589200D01*
X11348400Y-7549200D02*
X11308400Y-7589200D01*
X11403000Y-8355000D02*
X11443000Y-8395000D01*
X11443000Y-8355000D02*
X11403000Y-8395000D01*
X12640800Y-8666800D02*
X12680800Y-8706800D01*
X12680800Y-8666800D02*
X12640800Y-8706800D01*
X13086400Y-8463600D02*
X13126400Y-8503600D01*
X13126400Y-8463600D02*
X13086400Y-8503600D01*
X13391200Y-7650800D02*
X13431200Y-7690800D01*
X13431200Y-7650800D02*
X13391200Y-7690800D01*
X8928100Y-6858000D02*
G75*
G03X8928100Y-6858000I-38100J0D01*
G01*
X9182100Y-6858000D02*
G75*
G03X9182100Y-6858000I-38100J0D01*
G01*
X9436100Y-6858000D02*
G75*
G03X9436100Y-6858000I-38100J0D01*
G01*
X9690100Y-6858000D02*
G75*
G03X9690100Y-6858000I-38100J0D01*
G01*
X9944100Y-6858000D02*
G75*
G03X9944100Y-6858000I-38100J0D01*
G01*
X10198100Y-6858000D02*
G75*
G03X10198100Y-6858000I-38100J0D01*
G01*
X10452100Y-6858000D02*
G75*
G03X10452100Y-6858000I-38100J0D01*
G01*
X10706100Y-6858000D02*
G75*
G03X10706100Y-6858000I-38100J0D01*
G01*
X10960100Y-6858000D02*
G75*
G03X10960100Y-6858000I-38100J0D01*
G01*
X11214100Y-6858000D02*
G75*
G03X11214100Y-6858000I-38100J0D01*
G01*
X11468100Y-6858000D02*
G75*
G03X11468100Y-6858000I-38100J0D01*
G01*
X11722100Y-6858000D02*
G75*
G03X11722100Y-6858000I-38100J0D01*
G01*
X11976100Y-6858000D02*
G75*
G03X11976100Y-6858000I-38100J0D01*
G01*
X12230100Y-6858000D02*
G75*
G03X12230100Y-6858000I-38100J0D01*
G01*
X8928100Y-8890000D02*
G75*
G03X8928100Y-8890000I-38100J0D01*
G01*
X9182100Y-8890000D02*
G75*
G03X9182100Y-8890000I-38100J0D01*
G01*
X9436100Y-8890000D02*
G75*
G03X9436100Y-8890000I-38100J0D01*
G01*
X9690100Y-8890000D02*
G75*
G03X9690100Y-8890000I-38100J0D01*
G01*
X9944100Y-8890000D02*
G75*
G03X9944100Y-8890000I-38100J0D01*
G01*
X10198100Y-8890000D02*
G75*
G03X10198100Y-8890000I-38100J0D01*
G01*
X10452100Y-8890000D02*
G75*
G03X10452100Y-8890000I-38100J0D01*
G01*
X10706100Y-8890000D02*
G75*
G03X10706100Y-8890000I-38100J0D01*
G01*
X10960100Y-8890000D02*
G75*
G03X10960100Y-8890000I-38100J0D01*
G01*
X11214100Y-8890000D02*
G75*
G03X11214100Y-8890000I-38100J0D01*
G01*
X11468100Y-8890000D02*
G75*
G03X11468100Y-8890000I-38100J0D01*
G01*
X11722100Y-8890000D02*
G75*
G03X11722100Y-8890000I-38100J0D01*
G01*
X11976100Y-8890000D02*
G75*
G03X11976100Y-8890000I-38100J0D01*
G01*
X12230100Y-8890000D02*
G75*
G03X12230100Y-8890000I-38100J0D01*
G01*
X6822440Y-8157200D02*
X6822440Y-8247200D01*
X6777440Y-8202200D02*
X6867440Y-8202200D01*
X6822440Y-8361200D02*
X6822440Y-8451200D01*
X6777440Y-8406200D02*
X6867440Y-8406200D01*
X6822440Y-8565200D02*
X6822440Y-8655200D01*
X6777440Y-8610200D02*
X6867440Y-8610200D01*
X7076440Y-8259200D02*
X7076440Y-8349200D01*
X7031440Y-8304200D02*
X7121440Y-8304200D01*
X7076440Y-8463200D02*
X7076440Y-8553200D01*
X7031440Y-8508200D02*
X7121440Y-8508200D01*
X7076440Y-8667200D02*
X7076440Y-8757200D01*
X7031440Y-8712200D02*
X7121440Y-8712200D01*
X13353348Y-9719268D02*
X13353348Y-9652092D01*
X13286172Y-9652092D01*
X13286172Y-9719268D01*
X13353348Y-9719268D01*
X13353348Y-9919268D02*
X13353348Y-9852092D01*
X13286172Y-9852092D01*
X13286172Y-9919268D01*
X13353348Y-9919268D01*
X7284720Y-9651200D02*
X7334720Y-9601200D01*
X7284720Y-9551200D01*
X7234720Y-9601200D01*
X7284720Y-9651200D01*
X7284720Y-10001200D02*
X7334720Y-9951200D01*
X7284720Y-9901200D01*
X7234720Y-9951200D01*
X7284720Y-10001200D01*
X10373360Y-9783280D02*
X10423360Y-9733280D01*
X10373360Y-9683280D01*
X10323360Y-9733280D01*
X10373360Y-9783280D01*
X10723360Y-9783280D02*
X10773360Y-9733280D01*
X10723360Y-9683280D01*
X10673360Y-9733280D01*
X10723360Y-9783280D01*
X9357360Y-9783280D02*
X9407360Y-9733280D01*
X9357360Y-9683280D01*
X9307360Y-9733280D01*
X9357360Y-9783280D01*
X9707360Y-9783280D02*
X9757360Y-9733280D01*
X9707360Y-9683280D01*
X9657360Y-9733280D01*
X9707360Y-9783280D01*
X14178280Y-9524200D02*
X14228280Y-9474200D01*
X14178280Y-9424200D01*
X14128280Y-9474200D01*
X14178280Y-9524200D01*
X14178280Y-9874200D02*
X14228280Y-9824200D01*
X14178280Y-9774200D01*
X14128280Y-9824200D01*
X14178280Y-9874200D01*
X7152640Y-6902920D02*
X7202640Y-6852920D01*
X7152640Y-6802920D01*
X7102640Y-6852920D01*
X7152640Y-6902920D01*
X7152640Y-7252920D02*
X7202640Y-7202920D01*
X7152640Y-7152920D01*
X7102640Y-7202920D01*
X7152640Y-7252920D01*
X11659560Y-9749480D02*
X11779560Y-9869480D01*
X11779560Y-9749480D02*
X11659560Y-9869480D01*
X11779560Y-9809480D02*
G75*
G03X11779560Y-9809480I-60000J0D01*
G01*
X12167560Y-9749480D02*
X12287560Y-9869480D01*
X12287560Y-9749480D02*
X12167560Y-9869480D01*
X12287560Y-9809480D02*
G75*
G03X12287560Y-9809480I-60000J0D01*
G01*
D12*
X6595868Y-11042194D02*
X6595868Y-10742194D01*
X6667297Y-10742194D01*
X6710154Y-10756480D01*
X6738726Y-10785052D01*
X6753011Y-10813623D01*
X6767297Y-10870766D01*
X6767297Y-10913623D01*
X6753011Y-10970766D01*
X6738726Y-10999337D01*
X6710154Y-11027909D01*
X6667297Y-11042194D01*
X6595868Y-11042194D01*
X6895868Y-11042194D02*
X6895868Y-10842194D01*
X6895868Y-10899337D02*
X6910154Y-10870766D01*
X6924440Y-10856480D01*
X6953011Y-10842194D01*
X6981583Y-10842194D01*
X7081583Y-11042194D02*
X7081583Y-10842194D01*
X7081583Y-10742194D02*
X7067297Y-10756480D01*
X7081583Y-10770766D01*
X7095868Y-10756480D01*
X7081583Y-10742194D01*
X7081583Y-10770766D01*
X7267297Y-11042194D02*
X7238726Y-11027909D01*
X7224440Y-10999337D01*
X7224440Y-10742194D01*
X7424440Y-11042194D02*
X7395868Y-11027909D01*
X7381583Y-10999337D01*
X7381583Y-10742194D01*
X7767297Y-11042194D02*
X7767297Y-10742194D01*
X7867297Y-10956480D01*
X7967297Y-10742194D01*
X7967297Y-11042194D01*
X8238726Y-11042194D02*
X8238726Y-10885052D01*
X8224440Y-10856480D01*
X8195868Y-10842194D01*
X8138726Y-10842194D01*
X8110154Y-10856480D01*
X8238726Y-11027909D02*
X8210154Y-11042194D01*
X8138726Y-11042194D01*
X8110154Y-11027909D01*
X8095868Y-10999337D01*
X8095868Y-10970766D01*
X8110154Y-10942194D01*
X8138726Y-10927909D01*
X8210154Y-10927909D01*
X8238726Y-10913623D01*
X8381583Y-10842194D02*
X8381583Y-11142194D01*
X8381583Y-10856480D02*
X8410154Y-10842194D01*
X8467297Y-10842194D01*
X8495868Y-10856480D01*
X8510154Y-10870766D01*
X8524440Y-10899337D01*
X8524440Y-10985052D01*
X8510154Y-11013623D01*
X8495868Y-11027909D01*
X8467297Y-11042194D01*
X8410154Y-11042194D01*
X8381583Y-11027909D01*
X8653011Y-11013623D02*
X8667297Y-11027909D01*
X8653011Y-11042194D01*
X8638726Y-11027909D01*
X8653011Y-11013623D01*
X8653011Y-11042194D01*
X8653011Y-10856480D02*
X8667297Y-10870766D01*
X8653011Y-10885052D01*
X8638726Y-10870766D01*
X8653011Y-10856480D01*
X8653011Y-10885052D01*
X6269440Y-11516480D02*
X6309440Y-11556480D01*
X6309440Y-11516480D02*
X6269440Y-11556480D01*
X6653011Y-11372194D02*
X6681583Y-11372194D01*
X6710154Y-11386480D01*
X6724440Y-11400766D01*
X6738726Y-11429337D01*
X6753011Y-11486480D01*
X6753011Y-11557909D01*
X6738726Y-11615051D01*
X6724440Y-11643623D01*
X6710154Y-11657909D01*
X6681583Y-11672194D01*
X6653011Y-11672194D01*
X6624440Y-11657909D01*
X6610154Y-11643623D01*
X6595868Y-11615051D01*
X6581583Y-11557909D01*
X6581583Y-11486480D01*
X6595868Y-11429337D01*
X6610154Y-11400766D01*
X6624440Y-11386480D01*
X6653011Y-11372194D01*
X6881583Y-11643623D02*
X6895868Y-11657909D01*
X6881583Y-11672194D01*
X6867297Y-11657909D01*
X6881583Y-11643623D01*
X6881583Y-11672194D01*
X7153011Y-11472194D02*
X7153011Y-11672194D01*
X7081583Y-11357909D02*
X7010154Y-11572194D01*
X7195868Y-11572194D01*
X7367297Y-11372194D02*
X7395868Y-11372194D01*
X7424440Y-11386480D01*
X7438726Y-11400766D01*
X7453011Y-11429337D01*
X7467297Y-11486480D01*
X7467297Y-11557909D01*
X7453011Y-11615051D01*
X7438726Y-11643623D01*
X7424440Y-11657909D01*
X7395868Y-11672194D01*
X7367297Y-11672194D01*
X7338726Y-11657909D01*
X7324440Y-11643623D01*
X7310154Y-11615051D01*
X7295868Y-11557909D01*
X7295868Y-11486480D01*
X7310154Y-11429337D01*
X7324440Y-11400766D01*
X7338726Y-11386480D01*
X7367297Y-11372194D01*
X7595868Y-11672194D02*
X7595868Y-11472194D01*
X7595868Y-11500766D02*
X7610154Y-11486480D01*
X7638726Y-11472194D01*
X7681583Y-11472194D01*
X7710154Y-11486480D01*
X7724440Y-11515051D01*
X7724440Y-11672194D01*
X7724440Y-11515051D02*
X7738726Y-11486480D01*
X7767297Y-11472194D01*
X7810154Y-11472194D01*
X7838726Y-11486480D01*
X7853011Y-11515051D01*
X7853011Y-11672194D01*
X7995868Y-11672194D02*
X7995868Y-11472194D01*
X7995868Y-11500766D02*
X8010154Y-11486480D01*
X8038726Y-11472194D01*
X8081583Y-11472194D01*
X8110154Y-11486480D01*
X8124440Y-11515051D01*
X8124440Y-11672194D01*
X8124440Y-11515051D02*
X8138726Y-11486480D01*
X8167297Y-11472194D01*
X8210154Y-11472194D01*
X8238726Y-11486480D01*
X8253011Y-11515051D01*
X8253011Y-11672194D01*
X8838726Y-11357909D02*
X8581583Y-11743623D01*
X9224440Y-11372194D02*
X9253011Y-11372194D01*
X9281583Y-11386480D01*
X9295868Y-11400766D01*
X9310154Y-11429337D01*
X9324440Y-11486480D01*
X9324440Y-11557909D01*
X9310154Y-11615051D01*
X9295868Y-11643623D01*
X9281583Y-11657909D01*
X9253011Y-11672194D01*
X9224440Y-11672194D01*
X9195868Y-11657909D01*
X9181583Y-11643623D01*
X9167297Y-11615051D01*
X9153011Y-11557909D01*
X9153011Y-11486480D01*
X9167297Y-11429337D01*
X9181583Y-11400766D01*
X9195868Y-11386480D01*
X9224440Y-11372194D01*
X9453011Y-11643623D02*
X9467297Y-11657909D01*
X9453011Y-11672194D01*
X9438726Y-11657909D01*
X9453011Y-11643623D01*
X9453011Y-11672194D01*
X9653011Y-11372194D02*
X9681583Y-11372194D01*
X9710154Y-11386480D01*
X9724440Y-11400766D01*
X9738726Y-11429337D01*
X9753011Y-11486480D01*
X9753011Y-11557909D01*
X9738726Y-11615051D01*
X9724440Y-11643623D01*
X9710154Y-11657909D01*
X9681583Y-11672194D01*
X9653011Y-11672194D01*
X9624440Y-11657909D01*
X9610154Y-11643623D01*
X9595868Y-11615051D01*
X9581583Y-11557909D01*
X9581583Y-11486480D01*
X9595868Y-11429337D01*
X9610154Y-11400766D01*
X9624440Y-11386480D01*
X9653011Y-11372194D01*
X10038726Y-11672194D02*
X9867297Y-11672194D01*
X9953011Y-11672194D02*
X9953011Y-11372194D01*
X9924440Y-11415051D01*
X9895868Y-11443623D01*
X9867297Y-11457909D01*
X10295868Y-11372194D02*
X10238726Y-11372194D01*
X10210154Y-11386480D01*
X10195868Y-11400766D01*
X10167297Y-11443623D01*
X10153011Y-11500766D01*
X10153011Y-11615051D01*
X10167297Y-11643623D01*
X10181583Y-11657909D01*
X10210154Y-11672194D01*
X10267297Y-11672194D01*
X10295868Y-11657909D01*
X10310154Y-11643623D01*
X10324440Y-11615051D01*
X10324440Y-11543623D01*
X10310154Y-11515051D01*
X10295868Y-11500766D01*
X10267297Y-11486480D01*
X10210154Y-11486480D01*
X10181583Y-11500766D01*
X10167297Y-11515051D01*
X10153011Y-11543623D01*
X10438726Y-11372194D02*
X10438726Y-11429337D01*
X10553011Y-11372194D02*
X10553011Y-11429337D01*
X10995868Y-11786480D02*
X10981583Y-11772194D01*
X10953011Y-11729337D01*
X10938726Y-11700766D01*
X10924440Y-11657909D01*
X10910154Y-11586480D01*
X10910154Y-11529337D01*
X10924440Y-11457909D01*
X10938726Y-11415051D01*
X10953011Y-11386480D01*
X10981583Y-11343623D01*
X10995868Y-11329337D01*
X11081583Y-11372194D02*
X11267297Y-11372194D01*
X11167297Y-11486480D01*
X11210154Y-11486480D01*
X11238726Y-11500766D01*
X11253011Y-11515051D01*
X11267297Y-11543623D01*
X11267297Y-11615051D01*
X11253011Y-11643623D01*
X11238726Y-11657909D01*
X11210154Y-11672194D01*
X11124440Y-11672194D01*
X11095868Y-11657909D01*
X11081583Y-11643623D01*
X11367297Y-11372194D02*
X11553011Y-11372194D01*
X11453011Y-11486480D01*
X11495868Y-11486480D01*
X11524440Y-11500766D01*
X11538726Y-11515051D01*
X11553011Y-11543623D01*
X11553011Y-11615051D01*
X11538726Y-11643623D01*
X11524440Y-11657909D01*
X11495868Y-11672194D01*
X11410154Y-11672194D01*
X11381583Y-11657909D01*
X11367297Y-11643623D01*
X11910154Y-11672194D02*
X11910154Y-11372194D01*
X12038726Y-11672194D02*
X12038726Y-11515051D01*
X12024440Y-11486480D01*
X11995868Y-11472194D01*
X11953011Y-11472194D01*
X11924440Y-11486480D01*
X11910154Y-11500766D01*
X12224440Y-11672194D02*
X12195868Y-11657909D01*
X12181583Y-11643623D01*
X12167297Y-11615051D01*
X12167297Y-11529337D01*
X12181583Y-11500766D01*
X12195868Y-11486480D01*
X12224440Y-11472194D01*
X12267297Y-11472194D01*
X12295868Y-11486480D01*
X12310154Y-11500766D01*
X12324440Y-11529337D01*
X12324440Y-11615051D01*
X12310154Y-11643623D01*
X12295868Y-11657909D01*
X12267297Y-11672194D01*
X12224440Y-11672194D01*
X12495868Y-11672194D02*
X12467297Y-11657909D01*
X12453011Y-11629337D01*
X12453011Y-11372194D01*
X12724440Y-11657909D02*
X12695868Y-11672194D01*
X12638726Y-11672194D01*
X12610154Y-11657909D01*
X12595868Y-11629337D01*
X12595868Y-11515051D01*
X12610154Y-11486480D01*
X12638726Y-11472194D01*
X12695868Y-11472194D01*
X12724440Y-11486480D01*
X12738726Y-11515051D01*
X12738726Y-11543623D01*
X12595868Y-11572194D01*
X12853011Y-11657909D02*
X12881583Y-11672194D01*
X12938726Y-11672194D01*
X12967297Y-11657909D01*
X12981583Y-11629337D01*
X12981583Y-11615051D01*
X12967297Y-11586480D01*
X12938726Y-11572194D01*
X12895868Y-11572194D01*
X12867297Y-11557909D01*
X12853011Y-11529337D01*
X12853011Y-11515051D01*
X12867297Y-11486480D01*
X12895868Y-11472194D01*
X12938726Y-11472194D01*
X12967297Y-11486480D01*
X13081583Y-11786480D02*
X13095868Y-11772194D01*
X13124440Y-11729337D01*
X13138726Y-11700766D01*
X13153011Y-11657909D01*
X13167297Y-11586480D01*
X13167297Y-11529337D01*
X13153011Y-11457909D01*
X13138726Y-11415051D01*
X13124440Y-11386480D01*
X13095868Y-11343623D01*
X13081583Y-11329337D01*
X6309440Y-11932480D02*
G75*
G03X6309440Y-11932480I-38100J0D01*
G01*
X6653011Y-11768194D02*
X6681583Y-11768194D01*
X6710154Y-11782480D01*
X6724440Y-11796766D01*
X6738726Y-11825337D01*
X6753011Y-11882480D01*
X6753011Y-11953909D01*
X6738726Y-12011051D01*
X6724440Y-12039623D01*
X6710154Y-12053909D01*
X6681583Y-12068194D01*
X6653011Y-12068194D01*
X6624440Y-12053909D01*
X6610154Y-12039623D01*
X6595868Y-12011051D01*
X6581583Y-11953909D01*
X6581583Y-11882480D01*
X6595868Y-11825337D01*
X6610154Y-11796766D01*
X6624440Y-11782480D01*
X6653011Y-11768194D01*
X6881583Y-12039623D02*
X6895868Y-12053909D01*
X6881583Y-12068194D01*
X6867297Y-12053909D01*
X6881583Y-12039623D01*
X6881583Y-12068194D01*
X6995868Y-11768194D02*
X7195868Y-11768194D01*
X7067297Y-12068194D01*
X7438726Y-11768194D02*
X7381583Y-11768194D01*
X7353011Y-11782480D01*
X7338726Y-11796766D01*
X7310154Y-11839623D01*
X7295868Y-11896766D01*
X7295868Y-12011051D01*
X7310154Y-12039623D01*
X7324440Y-12053909D01*
X7353011Y-12068194D01*
X7410154Y-12068194D01*
X7438726Y-12053909D01*
X7453011Y-12039623D01*
X7467297Y-12011051D01*
X7467297Y-11939623D01*
X7453011Y-11911051D01*
X7438726Y-11896766D01*
X7410154Y-11882480D01*
X7353011Y-11882480D01*
X7324440Y-11896766D01*
X7310154Y-11911051D01*
X7295868Y-11939623D01*
X7595868Y-12068194D02*
X7595868Y-11868194D01*
X7595868Y-11896766D02*
X7610154Y-11882480D01*
X7638726Y-11868194D01*
X7681583Y-11868194D01*
X7710154Y-11882480D01*
X7724440Y-11911051D01*
X7724440Y-12068194D01*
X7724440Y-11911051D02*
X7738726Y-11882480D01*
X7767297Y-11868194D01*
X7810154Y-11868194D01*
X7838726Y-11882480D01*
X7853011Y-11911051D01*
X7853011Y-12068194D01*
X7995868Y-12068194D02*
X7995868Y-11868194D01*
X7995868Y-11896766D02*
X8010154Y-11882480D01*
X8038726Y-11868194D01*
X8081583Y-11868194D01*
X8110154Y-11882480D01*
X8124440Y-11911051D01*
X8124440Y-12068194D01*
X8124440Y-11911051D02*
X8138726Y-11882480D01*
X8167297Y-11868194D01*
X8210154Y-11868194D01*
X8238726Y-11882480D01*
X8253011Y-11911051D01*
X8253011Y-12068194D01*
X8838726Y-11753909D02*
X8581583Y-12139623D01*
X9224440Y-11768194D02*
X9253011Y-11768194D01*
X9281583Y-11782480D01*
X9295868Y-11796766D01*
X9310154Y-11825337D01*
X9324440Y-11882480D01*
X9324440Y-11953909D01*
X9310154Y-12011051D01*
X9295868Y-12039623D01*
X9281583Y-12053909D01*
X9253011Y-12068194D01*
X9224440Y-12068194D01*
X9195868Y-12053909D01*
X9181583Y-12039623D01*
X9167297Y-12011051D01*
X9153011Y-11953909D01*
X9153011Y-11882480D01*
X9167297Y-11825337D01*
X9181583Y-11796766D01*
X9195868Y-11782480D01*
X9224440Y-11768194D01*
X9453011Y-12039623D02*
X9467297Y-12053909D01*
X9453011Y-12068194D01*
X9438726Y-12053909D01*
X9453011Y-12039623D01*
X9453011Y-12068194D01*
X9653011Y-11768194D02*
X9681583Y-11768194D01*
X9710154Y-11782480D01*
X9724440Y-11796766D01*
X9738726Y-11825337D01*
X9753011Y-11882480D01*
X9753011Y-11953909D01*
X9738726Y-12011051D01*
X9724440Y-12039623D01*
X9710154Y-12053909D01*
X9681583Y-12068194D01*
X9653011Y-12068194D01*
X9624440Y-12053909D01*
X9610154Y-12039623D01*
X9595868Y-12011051D01*
X9581583Y-11953909D01*
X9581583Y-11882480D01*
X9595868Y-11825337D01*
X9610154Y-11796766D01*
X9624440Y-11782480D01*
X9653011Y-11768194D01*
X9853011Y-11768194D02*
X10038726Y-11768194D01*
X9938726Y-11882480D01*
X9981583Y-11882480D01*
X10010154Y-11896766D01*
X10024440Y-11911051D01*
X10038726Y-11939623D01*
X10038726Y-12011051D01*
X10024440Y-12039623D01*
X10010154Y-12053909D01*
X9981583Y-12068194D01*
X9895868Y-12068194D01*
X9867297Y-12053909D01*
X9853011Y-12039623D01*
X10224440Y-11768194D02*
X10253011Y-11768194D01*
X10281583Y-11782480D01*
X10295868Y-11796766D01*
X10310154Y-11825337D01*
X10324440Y-11882480D01*
X10324440Y-11953909D01*
X10310154Y-12011051D01*
X10295868Y-12039623D01*
X10281583Y-12053909D01*
X10253011Y-12068194D01*
X10224440Y-12068194D01*
X10195868Y-12053909D01*
X10181583Y-12039623D01*
X10167297Y-12011051D01*
X10153011Y-11953909D01*
X10153011Y-11882480D01*
X10167297Y-11825337D01*
X10181583Y-11796766D01*
X10195868Y-11782480D01*
X10224440Y-11768194D01*
X10438726Y-11768194D02*
X10438726Y-11825337D01*
X10553011Y-11768194D02*
X10553011Y-11825337D01*
X10995868Y-12182480D02*
X10981583Y-12168194D01*
X10953011Y-12125337D01*
X10938726Y-12096766D01*
X10924440Y-12053909D01*
X10910154Y-11982480D01*
X10910154Y-11925337D01*
X10924440Y-11853909D01*
X10938726Y-11811051D01*
X10953011Y-11782480D01*
X10981583Y-11739623D01*
X10995868Y-11725337D01*
X11095868Y-11796766D02*
X11110154Y-11782480D01*
X11138726Y-11768194D01*
X11210154Y-11768194D01*
X11238726Y-11782480D01*
X11253011Y-11796766D01*
X11267297Y-11825337D01*
X11267297Y-11853909D01*
X11253011Y-11896766D01*
X11081583Y-12068194D01*
X11267297Y-12068194D01*
X11438726Y-11896766D02*
X11410154Y-11882480D01*
X11395868Y-11868194D01*
X11381583Y-11839623D01*
X11381583Y-11825337D01*
X11395868Y-11796766D01*
X11410154Y-11782480D01*
X11438726Y-11768194D01*
X11495868Y-11768194D01*
X11524440Y-11782480D01*
X11538726Y-11796766D01*
X11553011Y-11825337D01*
X11553011Y-11839623D01*
X11538726Y-11868194D01*
X11524440Y-11882480D01*
X11495868Y-11896766D01*
X11438726Y-11896766D01*
X11410154Y-11911051D01*
X11395868Y-11925337D01*
X11381583Y-11953909D01*
X11381583Y-12011051D01*
X11395868Y-12039623D01*
X11410154Y-12053909D01*
X11438726Y-12068194D01*
X11495868Y-12068194D01*
X11524440Y-12053909D01*
X11538726Y-12039623D01*
X11553011Y-12011051D01*
X11553011Y-11953909D01*
X11538726Y-11925337D01*
X11524440Y-11911051D01*
X11495868Y-11896766D01*
X11910154Y-12068194D02*
X11910154Y-11768194D01*
X12038726Y-12068194D02*
X12038726Y-11911051D01*
X12024440Y-11882480D01*
X11995868Y-11868194D01*
X11953011Y-11868194D01*
X11924440Y-11882480D01*
X11910154Y-11896766D01*
X12224440Y-12068194D02*
X12195868Y-12053909D01*
X12181583Y-12039623D01*
X12167297Y-12011051D01*
X12167297Y-11925337D01*
X12181583Y-11896766D01*
X12195868Y-11882480D01*
X12224440Y-11868194D01*
X12267297Y-11868194D01*
X12295868Y-11882480D01*
X12310154Y-11896766D01*
X12324440Y-11925337D01*
X12324440Y-12011051D01*
X12310154Y-12039623D01*
X12295868Y-12053909D01*
X12267297Y-12068194D01*
X12224440Y-12068194D01*
X12495868Y-12068194D02*
X12467297Y-12053909D01*
X12453011Y-12025337D01*
X12453011Y-11768194D01*
X12724440Y-12053909D02*
X12695868Y-12068194D01*
X12638726Y-12068194D01*
X12610154Y-12053909D01*
X12595868Y-12025337D01*
X12595868Y-11911051D01*
X12610154Y-11882480D01*
X12638726Y-11868194D01*
X12695868Y-11868194D01*
X12724440Y-11882480D01*
X12738726Y-11911051D01*
X12738726Y-11939623D01*
X12595868Y-11968194D01*
X12853011Y-12053909D02*
X12881583Y-12068194D01*
X12938726Y-12068194D01*
X12967297Y-12053909D01*
X12981583Y-12025337D01*
X12981583Y-12011051D01*
X12967297Y-11982480D01*
X12938726Y-11968194D01*
X12895868Y-11968194D01*
X12867297Y-11953909D01*
X12853011Y-11925337D01*
X12853011Y-11911051D01*
X12867297Y-11882480D01*
X12895868Y-11868194D01*
X12938726Y-11868194D01*
X12967297Y-11882480D01*
X13081583Y-12182480D02*
X13095868Y-12168194D01*
X13124440Y-12125337D01*
X13138726Y-12096766D01*
X13153011Y-12053909D01*
X13167297Y-11982480D01*
X13167297Y-11925337D01*
X13153011Y-11853909D01*
X13138726Y-11811051D01*
X13124440Y-11782480D01*
X13095868Y-11739623D01*
X13081583Y-11725337D01*
X6264440Y-12283480D02*
X6264440Y-12373480D01*
X6219440Y-12328480D02*
X6309440Y-12328480D01*
X6653011Y-12164194D02*
X6681583Y-12164194D01*
X6710154Y-12178480D01*
X6724440Y-12192766D01*
X6738726Y-12221337D01*
X6753011Y-12278480D01*
X6753011Y-12349909D01*
X6738726Y-12407051D01*
X6724440Y-12435623D01*
X6710154Y-12449909D01*
X6681583Y-12464194D01*
X6653011Y-12464194D01*
X6624440Y-12449909D01*
X6610154Y-12435623D01*
X6595868Y-12407051D01*
X6581583Y-12349909D01*
X6581583Y-12278480D01*
X6595868Y-12221337D01*
X6610154Y-12192766D01*
X6624440Y-12178480D01*
X6653011Y-12164194D01*
X6881583Y-12435623D02*
X6895868Y-12449909D01*
X6881583Y-12464194D01*
X6867297Y-12449909D01*
X6881583Y-12435623D01*
X6881583Y-12464194D01*
X7038726Y-12464194D02*
X7095868Y-12464194D01*
X7124440Y-12449909D01*
X7138726Y-12435623D01*
X7167297Y-12392766D01*
X7181583Y-12335623D01*
X7181583Y-12221337D01*
X7167297Y-12192766D01*
X7153011Y-12178480D01*
X7124440Y-12164194D01*
X7067297Y-12164194D01*
X7038726Y-12178480D01*
X7024440Y-12192766D01*
X7010154Y-12221337D01*
X7010154Y-12292766D01*
X7024440Y-12321337D01*
X7038726Y-12335623D01*
X7067297Y-12349909D01*
X7124440Y-12349909D01*
X7153011Y-12335623D01*
X7167297Y-12321337D01*
X7181583Y-12292766D01*
X7367297Y-12164194D02*
X7395868Y-12164194D01*
X7424440Y-12178480D01*
X7438726Y-12192766D01*
X7453011Y-12221337D01*
X7467297Y-12278480D01*
X7467297Y-12349909D01*
X7453011Y-12407051D01*
X7438726Y-12435623D01*
X7424440Y-12449909D01*
X7395868Y-12464194D01*
X7367297Y-12464194D01*
X7338726Y-12449909D01*
X7324440Y-12435623D01*
X7310154Y-12407051D01*
X7295868Y-12349909D01*
X7295868Y-12278480D01*
X7310154Y-12221337D01*
X7324440Y-12192766D01*
X7338726Y-12178480D01*
X7367297Y-12164194D01*
X7595868Y-12464194D02*
X7595868Y-12264194D01*
X7595868Y-12292766D02*
X7610154Y-12278480D01*
X7638726Y-12264194D01*
X7681583Y-12264194D01*
X7710154Y-12278480D01*
X7724440Y-12307051D01*
X7724440Y-12464194D01*
X7724440Y-12307051D02*
X7738726Y-12278480D01*
X7767297Y-12264194D01*
X7810154Y-12264194D01*
X7838726Y-12278480D01*
X7853011Y-12307051D01*
X7853011Y-12464194D01*
X7995868Y-12464194D02*
X7995868Y-12264194D01*
X7995868Y-12292766D02*
X8010154Y-12278480D01*
X8038726Y-12264194D01*
X8081583Y-12264194D01*
X8110154Y-12278480D01*
X8124440Y-12307051D01*
X8124440Y-12464194D01*
X8124440Y-12307051D02*
X8138726Y-12278480D01*
X8167297Y-12264194D01*
X8210154Y-12264194D01*
X8238726Y-12278480D01*
X8253011Y-12307051D01*
X8253011Y-12464194D01*
X8838726Y-12149909D02*
X8581583Y-12535623D01*
X9224440Y-12164194D02*
X9253011Y-12164194D01*
X9281583Y-12178480D01*
X9295868Y-12192766D01*
X9310154Y-12221337D01*
X9324440Y-12278480D01*
X9324440Y-12349909D01*
X9310154Y-12407051D01*
X9295868Y-12435623D01*
X9281583Y-12449909D01*
X9253011Y-12464194D01*
X9224440Y-12464194D01*
X9195868Y-12449909D01*
X9181583Y-12435623D01*
X9167297Y-12407051D01*
X9153011Y-12349909D01*
X9153011Y-12278480D01*
X9167297Y-12221337D01*
X9181583Y-12192766D01*
X9195868Y-12178480D01*
X9224440Y-12164194D01*
X9453011Y-12435623D02*
X9467297Y-12449909D01*
X9453011Y-12464194D01*
X9438726Y-12449909D01*
X9453011Y-12435623D01*
X9453011Y-12464194D01*
X9653011Y-12164194D02*
X9681583Y-12164194D01*
X9710154Y-12178480D01*
X9724440Y-12192766D01*
X9738726Y-12221337D01*
X9753011Y-12278480D01*
X9753011Y-12349909D01*
X9738726Y-12407051D01*
X9724440Y-12435623D01*
X9710154Y-12449909D01*
X9681583Y-12464194D01*
X9653011Y-12464194D01*
X9624440Y-12449909D01*
X9610154Y-12435623D01*
X9595868Y-12407051D01*
X9581583Y-12349909D01*
X9581583Y-12278480D01*
X9595868Y-12221337D01*
X9610154Y-12192766D01*
X9624440Y-12178480D01*
X9653011Y-12164194D01*
X9853011Y-12164194D02*
X10038726Y-12164194D01*
X9938726Y-12278480D01*
X9981583Y-12278480D01*
X10010154Y-12292766D01*
X10024440Y-12307051D01*
X10038726Y-12335623D01*
X10038726Y-12407051D01*
X10024440Y-12435623D01*
X10010154Y-12449909D01*
X9981583Y-12464194D01*
X9895868Y-12464194D01*
X9867297Y-12449909D01*
X9853011Y-12435623D01*
X10310154Y-12164194D02*
X10167297Y-12164194D01*
X10153011Y-12307051D01*
X10167297Y-12292766D01*
X10195868Y-12278480D01*
X10267297Y-12278480D01*
X10295868Y-12292766D01*
X10310154Y-12307051D01*
X10324440Y-12335623D01*
X10324440Y-12407051D01*
X10310154Y-12435623D01*
X10295868Y-12449909D01*
X10267297Y-12464194D01*
X10195868Y-12464194D01*
X10167297Y-12449909D01*
X10153011Y-12435623D01*
X10438726Y-12164194D02*
X10438726Y-12221337D01*
X10553011Y-12164194D02*
X10553011Y-12221337D01*
X10995868Y-12578480D02*
X10981583Y-12564194D01*
X10953011Y-12521337D01*
X10938726Y-12492766D01*
X10924440Y-12449909D01*
X10910154Y-12378480D01*
X10910154Y-12321337D01*
X10924440Y-12249909D01*
X10938726Y-12207051D01*
X10953011Y-12178480D01*
X10981583Y-12135623D01*
X10995868Y-12121337D01*
X11238726Y-12164194D02*
X11181583Y-12164194D01*
X11153011Y-12178480D01*
X11138726Y-12192766D01*
X11110154Y-12235623D01*
X11095868Y-12292766D01*
X11095868Y-12407051D01*
X11110154Y-12435623D01*
X11124440Y-12449909D01*
X11153011Y-12464194D01*
X11210154Y-12464194D01*
X11238726Y-12449909D01*
X11253011Y-12435623D01*
X11267297Y-12407051D01*
X11267297Y-12335623D01*
X11253011Y-12307051D01*
X11238726Y-12292766D01*
X11210154Y-12278480D01*
X11153011Y-12278480D01*
X11124440Y-12292766D01*
X11110154Y-12307051D01*
X11095868Y-12335623D01*
X11624440Y-12464194D02*
X11624440Y-12164194D01*
X11753011Y-12464194D02*
X11753011Y-12307051D01*
X11738726Y-12278480D01*
X11710154Y-12264194D01*
X11667297Y-12264194D01*
X11638726Y-12278480D01*
X11624440Y-12292766D01*
X11938726Y-12464194D02*
X11910154Y-12449909D01*
X11895868Y-12435623D01*
X11881583Y-12407051D01*
X11881583Y-12321337D01*
X11895868Y-12292766D01*
X11910154Y-12278480D01*
X11938726Y-12264194D01*
X11981583Y-12264194D01*
X12010154Y-12278480D01*
X12024440Y-12292766D01*
X12038726Y-12321337D01*
X12038726Y-12407051D01*
X12024440Y-12435623D01*
X12010154Y-12449909D01*
X11981583Y-12464194D01*
X11938726Y-12464194D01*
X12210154Y-12464194D02*
X12181583Y-12449909D01*
X12167297Y-12421337D01*
X12167297Y-12164194D01*
X12438726Y-12449909D02*
X12410154Y-12464194D01*
X12353011Y-12464194D01*
X12324440Y-12449909D01*
X12310154Y-12421337D01*
X12310154Y-12307051D01*
X12324440Y-12278480D01*
X12353011Y-12264194D01*
X12410154Y-12264194D01*
X12438726Y-12278480D01*
X12453011Y-12307051D01*
X12453011Y-12335623D01*
X12310154Y-12364194D01*
X12567297Y-12449909D02*
X12595868Y-12464194D01*
X12653011Y-12464194D01*
X12681583Y-12449909D01*
X12695868Y-12421337D01*
X12695868Y-12407051D01*
X12681583Y-12378480D01*
X12653011Y-12364194D01*
X12610154Y-12364194D01*
X12581583Y-12349909D01*
X12567297Y-12321337D01*
X12567297Y-12307051D01*
X12581583Y-12278480D01*
X12610154Y-12264194D01*
X12653011Y-12264194D01*
X12681583Y-12278480D01*
X12795868Y-12578480D02*
X12810154Y-12564194D01*
X12838726Y-12521337D01*
X12853011Y-12492766D01*
X12867297Y-12449909D01*
X12881583Y-12378480D01*
X12881583Y-12321337D01*
X12867297Y-12249909D01*
X12853011Y-12207051D01*
X12838726Y-12178480D01*
X12810154Y-12135623D01*
X12795868Y-12121337D01*
X6295528Y-12758068D02*
X6295528Y-12690892D01*
X6228352Y-12690892D01*
X6228352Y-12758068D01*
X6295528Y-12758068D01*
X6653011Y-12560194D02*
X6681583Y-12560194D01*
X6710154Y-12574480D01*
X6724440Y-12588766D01*
X6738726Y-12617337D01*
X6753011Y-12674480D01*
X6753011Y-12745909D01*
X6738726Y-12803051D01*
X6724440Y-12831623D01*
X6710154Y-12845909D01*
X6681583Y-12860194D01*
X6653011Y-12860194D01*
X6624440Y-12845909D01*
X6610154Y-12831623D01*
X6595868Y-12803051D01*
X6581583Y-12745909D01*
X6581583Y-12674480D01*
X6595868Y-12617337D01*
X6610154Y-12588766D01*
X6624440Y-12574480D01*
X6653011Y-12560194D01*
X6881583Y-12831623D02*
X6895868Y-12845909D01*
X6881583Y-12860194D01*
X6867297Y-12845909D01*
X6881583Y-12831623D01*
X6881583Y-12860194D01*
X7038726Y-12860194D02*
X7095868Y-12860194D01*
X7124440Y-12845909D01*
X7138726Y-12831623D01*
X7167297Y-12788766D01*
X7181583Y-12731623D01*
X7181583Y-12617337D01*
X7167297Y-12588766D01*
X7153011Y-12574480D01*
X7124440Y-12560194D01*
X7067297Y-12560194D01*
X7038726Y-12574480D01*
X7024440Y-12588766D01*
X7010154Y-12617337D01*
X7010154Y-12688766D01*
X7024440Y-12717337D01*
X7038726Y-12731623D01*
X7067297Y-12745909D01*
X7124440Y-12745909D01*
X7153011Y-12731623D01*
X7167297Y-12717337D01*
X7181583Y-12688766D01*
X7453011Y-12560194D02*
X7310154Y-12560194D01*
X7295868Y-12703051D01*
X7310154Y-12688766D01*
X7338726Y-12674480D01*
X7410154Y-12674480D01*
X7438726Y-12688766D01*
X7453011Y-12703051D01*
X7467297Y-12731623D01*
X7467297Y-12803051D01*
X7453011Y-12831623D01*
X7438726Y-12845909D01*
X7410154Y-12860194D01*
X7338726Y-12860194D01*
X7310154Y-12845909D01*
X7295868Y-12831623D01*
X7595868Y-12860194D02*
X7595868Y-12660194D01*
X7595868Y-12688766D02*
X7610154Y-12674480D01*
X7638726Y-12660194D01*
X7681583Y-12660194D01*
X7710154Y-12674480D01*
X7724440Y-12703051D01*
X7724440Y-12860194D01*
X7724440Y-12703051D02*
X7738726Y-12674480D01*
X7767297Y-12660194D01*
X7810154Y-12660194D01*
X7838726Y-12674480D01*
X7853011Y-12703051D01*
X7853011Y-12860194D01*
X7995868Y-12860194D02*
X7995868Y-12660194D01*
X7995868Y-12688766D02*
X8010154Y-12674480D01*
X8038726Y-12660194D01*
X8081583Y-12660194D01*
X8110154Y-12674480D01*
X8124440Y-12703051D01*
X8124440Y-12860194D01*
X8124440Y-12703051D02*
X8138726Y-12674480D01*
X8167297Y-12660194D01*
X8210154Y-12660194D01*
X8238726Y-12674480D01*
X8253011Y-12703051D01*
X8253011Y-12860194D01*
X8838726Y-12545909D02*
X8581583Y-12931623D01*
X9224440Y-12560194D02*
X9253011Y-12560194D01*
X9281583Y-12574480D01*
X9295868Y-12588766D01*
X9310154Y-12617337D01*
X9324440Y-12674480D01*
X9324440Y-12745909D01*
X9310154Y-12803051D01*
X9295868Y-12831623D01*
X9281583Y-12845909D01*
X9253011Y-12860194D01*
X9224440Y-12860194D01*
X9195868Y-12845909D01*
X9181583Y-12831623D01*
X9167297Y-12803051D01*
X9153011Y-12745909D01*
X9153011Y-12674480D01*
X9167297Y-12617337D01*
X9181583Y-12588766D01*
X9195868Y-12574480D01*
X9224440Y-12560194D01*
X9453011Y-12831623D02*
X9467297Y-12845909D01*
X9453011Y-12860194D01*
X9438726Y-12845909D01*
X9453011Y-12831623D01*
X9453011Y-12860194D01*
X9653011Y-12560194D02*
X9681583Y-12560194D01*
X9710154Y-12574480D01*
X9724440Y-12588766D01*
X9738726Y-12617337D01*
X9753011Y-12674480D01*
X9753011Y-12745909D01*
X9738726Y-12803051D01*
X9724440Y-12831623D01*
X9710154Y-12845909D01*
X9681583Y-12860194D01*
X9653011Y-12860194D01*
X9624440Y-12845909D01*
X9610154Y-12831623D01*
X9595868Y-12803051D01*
X9581583Y-12745909D01*
X9581583Y-12674480D01*
X9595868Y-12617337D01*
X9610154Y-12588766D01*
X9624440Y-12574480D01*
X9653011Y-12560194D01*
X9853011Y-12560194D02*
X10038726Y-12560194D01*
X9938726Y-12674480D01*
X9981583Y-12674480D01*
X10010154Y-12688766D01*
X10024440Y-12703051D01*
X10038726Y-12731623D01*
X10038726Y-12803051D01*
X10024440Y-12831623D01*
X10010154Y-12845909D01*
X9981583Y-12860194D01*
X9895868Y-12860194D01*
X9867297Y-12845909D01*
X9853011Y-12831623D01*
X10138726Y-12560194D02*
X10338726Y-12560194D01*
X10210154Y-12860194D01*
X10438726Y-12560194D02*
X10438726Y-12617337D01*
X10553011Y-12560194D02*
X10553011Y-12617337D01*
X10995868Y-12974480D02*
X10981583Y-12960194D01*
X10953011Y-12917337D01*
X10938726Y-12888766D01*
X10924440Y-12845909D01*
X10910154Y-12774480D01*
X10910154Y-12717337D01*
X10924440Y-12645909D01*
X10938726Y-12603051D01*
X10953011Y-12574480D01*
X10981583Y-12531623D01*
X10995868Y-12517337D01*
X11095868Y-12588766D02*
X11110154Y-12574480D01*
X11138726Y-12560194D01*
X11210154Y-12560194D01*
X11238726Y-12574480D01*
X11253011Y-12588766D01*
X11267297Y-12617337D01*
X11267297Y-12645909D01*
X11253011Y-12688766D01*
X11081583Y-12860194D01*
X11267297Y-12860194D01*
X11624440Y-12860194D02*
X11624440Y-12560194D01*
X11753011Y-12860194D02*
X11753011Y-12703051D01*
X11738726Y-12674480D01*
X11710154Y-12660194D01*
X11667297Y-12660194D01*
X11638726Y-12674480D01*
X11624440Y-12688766D01*
X11938726Y-12860194D02*
X11910154Y-12845909D01*
X11895868Y-12831623D01*
X11881583Y-12803051D01*
X11881583Y-12717337D01*
X11895868Y-12688766D01*
X11910154Y-12674480D01*
X11938726Y-12660194D01*
X11981583Y-12660194D01*
X12010154Y-12674480D01*
X12024440Y-12688766D01*
X12038726Y-12717337D01*
X12038726Y-12803051D01*
X12024440Y-12831623D01*
X12010154Y-12845909D01*
X11981583Y-12860194D01*
X11938726Y-12860194D01*
X12210154Y-12860194D02*
X12181583Y-12845909D01*
X12167297Y-12817337D01*
X12167297Y-12560194D01*
X12438726Y-12845909D02*
X12410154Y-12860194D01*
X12353011Y-12860194D01*
X12324440Y-12845909D01*
X12310154Y-12817337D01*
X12310154Y-12703051D01*
X12324440Y-12674480D01*
X12353011Y-12660194D01*
X12410154Y-12660194D01*
X12438726Y-12674480D01*
X12453011Y-12703051D01*
X12453011Y-12731623D01*
X12310154Y-12760194D01*
X12567297Y-12845909D02*
X12595868Y-12860194D01*
X12653011Y-12860194D01*
X12681583Y-12845909D01*
X12695868Y-12817337D01*
X12695868Y-12803051D01*
X12681583Y-12774480D01*
X12653011Y-12760194D01*
X12610154Y-12760194D01*
X12581583Y-12745909D01*
X12567297Y-12717337D01*
X12567297Y-12703051D01*
X12581583Y-12674480D01*
X12610154Y-12660194D01*
X12653011Y-12660194D01*
X12681583Y-12674480D01*
X12795868Y-12974480D02*
X12810154Y-12960194D01*
X12838726Y-12917337D01*
X12853011Y-12888766D01*
X12867297Y-12845909D01*
X12881583Y-12774480D01*
X12881583Y-12717337D01*
X12867297Y-12645909D01*
X12853011Y-12603051D01*
X12838726Y-12574480D01*
X12810154Y-12531623D01*
X12795868Y-12517337D01*
X6259440Y-13170480D02*
X6309440Y-13120480D01*
X6259440Y-13070480D01*
X6209440Y-13120480D01*
X6259440Y-13170480D01*
X6753011Y-13256194D02*
X6581583Y-13256194D01*
X6667297Y-13256194D02*
X6667297Y-12956194D01*
X6638726Y-12999051D01*
X6610154Y-13027623D01*
X6581583Y-13041909D01*
X6881583Y-13227623D02*
X6895868Y-13241909D01*
X6881583Y-13256194D01*
X6867297Y-13241909D01*
X6881583Y-13227623D01*
X6881583Y-13256194D01*
X7081583Y-12956194D02*
X7110154Y-12956194D01*
X7138726Y-12970480D01*
X7153011Y-12984766D01*
X7167297Y-13013337D01*
X7181583Y-13070480D01*
X7181583Y-13141909D01*
X7167297Y-13199051D01*
X7153011Y-13227623D01*
X7138726Y-13241909D01*
X7110154Y-13256194D01*
X7081583Y-13256194D01*
X7053011Y-13241909D01*
X7038726Y-13227623D01*
X7024440Y-13199051D01*
X7010154Y-13141909D01*
X7010154Y-13070480D01*
X7024440Y-13013337D01*
X7038726Y-12984766D01*
X7053011Y-12970480D01*
X7081583Y-12956194D01*
X7367297Y-12956194D02*
X7395868Y-12956194D01*
X7424440Y-12970480D01*
X7438726Y-12984766D01*
X7453011Y-13013337D01*
X7467297Y-13070480D01*
X7467297Y-13141909D01*
X7453011Y-13199051D01*
X7438726Y-13227623D01*
X7424440Y-13241909D01*
X7395868Y-13256194D01*
X7367297Y-13256194D01*
X7338726Y-13241909D01*
X7324440Y-13227623D01*
X7310154Y-13199051D01*
X7295868Y-13141909D01*
X7295868Y-13070480D01*
X7310154Y-13013337D01*
X7324440Y-12984766D01*
X7338726Y-12970480D01*
X7367297Y-12956194D01*
X7595868Y-13256194D02*
X7595868Y-13056194D01*
X7595868Y-13084766D02*
X7610154Y-13070480D01*
X7638726Y-13056194D01*
X7681583Y-13056194D01*
X7710154Y-13070480D01*
X7724440Y-13099051D01*
X7724440Y-13256194D01*
X7724440Y-13099051D02*
X7738726Y-13070480D01*
X7767297Y-13056194D01*
X7810154Y-13056194D01*
X7838726Y-13070480D01*
X7853011Y-13099051D01*
X7853011Y-13256194D01*
X7995868Y-13256194D02*
X7995868Y-13056194D01*
X7995868Y-13084766D02*
X8010154Y-13070480D01*
X8038726Y-13056194D01*
X8081583Y-13056194D01*
X8110154Y-13070480D01*
X8124440Y-13099051D01*
X8124440Y-13256194D01*
X8124440Y-13099051D02*
X8138726Y-13070480D01*
X8167297Y-13056194D01*
X8210154Y-13056194D01*
X8238726Y-13070480D01*
X8253011Y-13099051D01*
X8253011Y-13256194D01*
X8838726Y-12941909D02*
X8581583Y-13327623D01*
X9224440Y-12956194D02*
X9253011Y-12956194D01*
X9281583Y-12970480D01*
X9295868Y-12984766D01*
X9310154Y-13013337D01*
X9324440Y-13070480D01*
X9324440Y-13141909D01*
X9310154Y-13199051D01*
X9295868Y-13227623D01*
X9281583Y-13241909D01*
X9253011Y-13256194D01*
X9224440Y-13256194D01*
X9195868Y-13241909D01*
X9181583Y-13227623D01*
X9167297Y-13199051D01*
X9153011Y-13141909D01*
X9153011Y-13070480D01*
X9167297Y-13013337D01*
X9181583Y-12984766D01*
X9195868Y-12970480D01*
X9224440Y-12956194D01*
X9453011Y-13227623D02*
X9467297Y-13241909D01*
X9453011Y-13256194D01*
X9438726Y-13241909D01*
X9453011Y-13227623D01*
X9453011Y-13256194D01*
X9653011Y-12956194D02*
X9681583Y-12956194D01*
X9710154Y-12970480D01*
X9724440Y-12984766D01*
X9738726Y-13013337D01*
X9753011Y-13070480D01*
X9753011Y-13141909D01*
X9738726Y-13199051D01*
X9724440Y-13227623D01*
X9710154Y-13241909D01*
X9681583Y-13256194D01*
X9653011Y-13256194D01*
X9624440Y-13241909D01*
X9610154Y-13227623D01*
X9595868Y-13199051D01*
X9581583Y-13141909D01*
X9581583Y-13070480D01*
X9595868Y-13013337D01*
X9610154Y-12984766D01*
X9624440Y-12970480D01*
X9653011Y-12956194D01*
X9853011Y-12956194D02*
X10038726Y-12956194D01*
X9938726Y-13070480D01*
X9981583Y-13070480D01*
X10010154Y-13084766D01*
X10024440Y-13099051D01*
X10038726Y-13127623D01*
X10038726Y-13199051D01*
X10024440Y-13227623D01*
X10010154Y-13241909D01*
X9981583Y-13256194D01*
X9895868Y-13256194D01*
X9867297Y-13241909D01*
X9853011Y-13227623D01*
X10181583Y-13256194D02*
X10238726Y-13256194D01*
X10267297Y-13241909D01*
X10281583Y-13227623D01*
X10310154Y-13184766D01*
X10324440Y-13127623D01*
X10324440Y-13013337D01*
X10310154Y-12984766D01*
X10295868Y-12970480D01*
X10267297Y-12956194D01*
X10210154Y-12956194D01*
X10181583Y-12970480D01*
X10167297Y-12984766D01*
X10153011Y-13013337D01*
X10153011Y-13084766D01*
X10167297Y-13113337D01*
X10181583Y-13127623D01*
X10210154Y-13141909D01*
X10267297Y-13141909D01*
X10295868Y-13127623D01*
X10310154Y-13113337D01*
X10324440Y-13084766D01*
X10438726Y-12956194D02*
X10438726Y-13013337D01*
X10553011Y-12956194D02*
X10553011Y-13013337D01*
X10995868Y-13370480D02*
X10981583Y-13356194D01*
X10953011Y-13313337D01*
X10938726Y-13284766D01*
X10924440Y-13241909D01*
X10910154Y-13170480D01*
X10910154Y-13113337D01*
X10924440Y-13041909D01*
X10938726Y-12999051D01*
X10953011Y-12970480D01*
X10981583Y-12927623D01*
X10995868Y-12913337D01*
X11267297Y-13256194D02*
X11095868Y-13256194D01*
X11181583Y-13256194D02*
X11181583Y-12956194D01*
X11153011Y-12999051D01*
X11124440Y-13027623D01*
X11095868Y-13041909D01*
X11453011Y-12956194D02*
X11481583Y-12956194D01*
X11510154Y-12970480D01*
X11524440Y-12984766D01*
X11538726Y-13013337D01*
X11553011Y-13070480D01*
X11553011Y-13141909D01*
X11538726Y-13199051D01*
X11524440Y-13227623D01*
X11510154Y-13241909D01*
X11481583Y-13256194D01*
X11453011Y-13256194D01*
X11424440Y-13241909D01*
X11410154Y-13227623D01*
X11395868Y-13199051D01*
X11381583Y-13141909D01*
X11381583Y-13070480D01*
X11395868Y-13013337D01*
X11410154Y-12984766D01*
X11424440Y-12970480D01*
X11453011Y-12956194D01*
X11910154Y-13256194D02*
X11910154Y-12956194D01*
X12038726Y-13256194D02*
X12038726Y-13099051D01*
X12024440Y-13070480D01*
X11995868Y-13056194D01*
X11953011Y-13056194D01*
X11924440Y-13070480D01*
X11910154Y-13084766D01*
X12224440Y-13256194D02*
X12195868Y-13241909D01*
X12181583Y-13227623D01*
X12167297Y-13199051D01*
X12167297Y-13113337D01*
X12181583Y-13084766D01*
X12195868Y-13070480D01*
X12224440Y-13056194D01*
X12267297Y-13056194D01*
X12295868Y-13070480D01*
X12310154Y-13084766D01*
X12324440Y-13113337D01*
X12324440Y-13199051D01*
X12310154Y-13227623D01*
X12295868Y-13241909D01*
X12267297Y-13256194D01*
X12224440Y-13256194D01*
X12495868Y-13256194D02*
X12467297Y-13241909D01*
X12453011Y-13213337D01*
X12453011Y-12956194D01*
X12724440Y-13241909D02*
X12695868Y-13256194D01*
X12638726Y-13256194D01*
X12610154Y-13241909D01*
X12595868Y-13213337D01*
X12595868Y-13099051D01*
X12610154Y-13070480D01*
X12638726Y-13056194D01*
X12695868Y-13056194D01*
X12724440Y-13070480D01*
X12738726Y-13099051D01*
X12738726Y-13127623D01*
X12595868Y-13156194D01*
X12853011Y-13241909D02*
X12881583Y-13256194D01*
X12938726Y-13256194D01*
X12967297Y-13241909D01*
X12981583Y-13213337D01*
X12981583Y-13199051D01*
X12967297Y-13170480D01*
X12938726Y-13156194D01*
X12895868Y-13156194D01*
X12867297Y-13141909D01*
X12853011Y-13113337D01*
X12853011Y-13099051D01*
X12867297Y-13070480D01*
X12895868Y-13056194D01*
X12938726Y-13056194D01*
X12967297Y-13070480D01*
X13081583Y-13370480D02*
X13095868Y-13356194D01*
X13124440Y-13313337D01*
X13138726Y-13284766D01*
X13153011Y-13241909D01*
X13167297Y-13170480D01*
X13167297Y-13113337D01*
X13153011Y-13041909D01*
X13138726Y-12999051D01*
X13124440Y-12970480D01*
X13095868Y-12927623D01*
X13081583Y-12913337D01*
X6189440Y-13456480D02*
X6309440Y-13576480D01*
X6309440Y-13456480D02*
X6189440Y-13576480D01*
X6309440Y-13516480D02*
G75*
G03X6309440Y-13516480I-60000J0D01*
G01*
X6753011Y-13652194D02*
X6581583Y-13652194D01*
X6667297Y-13652194D02*
X6667297Y-13352194D01*
X6638726Y-13395051D01*
X6610154Y-13423623D01*
X6581583Y-13437909D01*
X6881583Y-13623623D02*
X6895868Y-13637909D01*
X6881583Y-13652194D01*
X6867297Y-13637909D01*
X6881583Y-13623623D01*
X6881583Y-13652194D01*
X7010154Y-13380766D02*
X7024440Y-13366480D01*
X7053011Y-13352194D01*
X7124440Y-13352194D01*
X7153011Y-13366480D01*
X7167297Y-13380766D01*
X7181583Y-13409337D01*
X7181583Y-13437909D01*
X7167297Y-13480766D01*
X6995868Y-13652194D01*
X7181583Y-13652194D01*
X7367297Y-13352194D02*
X7395868Y-13352194D01*
X7424440Y-13366480D01*
X7438726Y-13380766D01*
X7453011Y-13409337D01*
X7467297Y-13466480D01*
X7467297Y-13537909D01*
X7453011Y-13595051D01*
X7438726Y-13623623D01*
X7424440Y-13637909D01*
X7395868Y-13652194D01*
X7367297Y-13652194D01*
X7338726Y-13637909D01*
X7324440Y-13623623D01*
X7310154Y-13595051D01*
X7295868Y-13537909D01*
X7295868Y-13466480D01*
X7310154Y-13409337D01*
X7324440Y-13380766D01*
X7338726Y-13366480D01*
X7367297Y-13352194D01*
X7595868Y-13652194D02*
X7595868Y-13452194D01*
X7595868Y-13480766D02*
X7610154Y-13466480D01*
X7638726Y-13452194D01*
X7681583Y-13452194D01*
X7710154Y-13466480D01*
X7724440Y-13495051D01*
X7724440Y-13652194D01*
X7724440Y-13495051D02*
X7738726Y-13466480D01*
X7767297Y-13452194D01*
X7810154Y-13452194D01*
X7838726Y-13466480D01*
X7853011Y-13495051D01*
X7853011Y-13652194D01*
X7995868Y-13652194D02*
X7995868Y-13452194D01*
X7995868Y-13480766D02*
X8010154Y-13466480D01*
X8038726Y-13452194D01*
X8081583Y-13452194D01*
X8110154Y-13466480D01*
X8124440Y-13495051D01*
X8124440Y-13652194D01*
X8124440Y-13495051D02*
X8138726Y-13466480D01*
X8167297Y-13452194D01*
X8210154Y-13452194D01*
X8238726Y-13466480D01*
X8253011Y-13495051D01*
X8253011Y-13652194D01*
X8838726Y-13337909D02*
X8581583Y-13723623D01*
X9224440Y-13352194D02*
X9253011Y-13352194D01*
X9281583Y-13366480D01*
X9295868Y-13380766D01*
X9310154Y-13409337D01*
X9324440Y-13466480D01*
X9324440Y-13537909D01*
X9310154Y-13595051D01*
X9295868Y-13623623D01*
X9281583Y-13637909D01*
X9253011Y-13652194D01*
X9224440Y-13652194D01*
X9195868Y-13637909D01*
X9181583Y-13623623D01*
X9167297Y-13595051D01*
X9153011Y-13537909D01*
X9153011Y-13466480D01*
X9167297Y-13409337D01*
X9181583Y-13380766D01*
X9195868Y-13366480D01*
X9224440Y-13352194D01*
X9453011Y-13623623D02*
X9467297Y-13637909D01*
X9453011Y-13652194D01*
X9438726Y-13637909D01*
X9453011Y-13623623D01*
X9453011Y-13652194D01*
X9653011Y-13352194D02*
X9681583Y-13352194D01*
X9710154Y-13366480D01*
X9724440Y-13380766D01*
X9738726Y-13409337D01*
X9753011Y-13466480D01*
X9753011Y-13537909D01*
X9738726Y-13595051D01*
X9724440Y-13623623D01*
X9710154Y-13637909D01*
X9681583Y-13652194D01*
X9653011Y-13652194D01*
X9624440Y-13637909D01*
X9610154Y-13623623D01*
X9595868Y-13595051D01*
X9581583Y-13537909D01*
X9581583Y-13466480D01*
X9595868Y-13409337D01*
X9610154Y-13380766D01*
X9624440Y-13366480D01*
X9653011Y-13352194D01*
X10010154Y-13452194D02*
X10010154Y-13652194D01*
X9938726Y-13337909D02*
X9867297Y-13552194D01*
X10053011Y-13552194D01*
X10138726Y-13352194D02*
X10338726Y-13352194D01*
X10210154Y-13652194D01*
X10438726Y-13352194D02*
X10438726Y-13409337D01*
X10553011Y-13352194D02*
X10553011Y-13409337D01*
X10995868Y-13766480D02*
X10981583Y-13752194D01*
X10953011Y-13709337D01*
X10938726Y-13680766D01*
X10924440Y-13637909D01*
X10910154Y-13566480D01*
X10910154Y-13509337D01*
X10924440Y-13437909D01*
X10938726Y-13395051D01*
X10953011Y-13366480D01*
X10981583Y-13323623D01*
X10995868Y-13309337D01*
X11095868Y-13380766D02*
X11110154Y-13366480D01*
X11138726Y-13352194D01*
X11210154Y-13352194D01*
X11238726Y-13366480D01*
X11253011Y-13380766D01*
X11267297Y-13409337D01*
X11267297Y-13437909D01*
X11253011Y-13480766D01*
X11081583Y-13652194D01*
X11267297Y-13652194D01*
X11624440Y-13652194D02*
X11624440Y-13352194D01*
X11753011Y-13652194D02*
X11753011Y-13495051D01*
X11738726Y-13466480D01*
X11710154Y-13452194D01*
X11667297Y-13452194D01*
X11638726Y-13466480D01*
X11624440Y-13480766D01*
X11938726Y-13652194D02*
X11910154Y-13637909D01*
X11895868Y-13623623D01*
X11881583Y-13595051D01*
X11881583Y-13509337D01*
X11895868Y-13480766D01*
X11910154Y-13466480D01*
X11938726Y-13452194D01*
X11981583Y-13452194D01*
X12010154Y-13466480D01*
X12024440Y-13480766D01*
X12038726Y-13509337D01*
X12038726Y-13595051D01*
X12024440Y-13623623D01*
X12010154Y-13637909D01*
X11981583Y-13652194D01*
X11938726Y-13652194D01*
X12210154Y-13652194D02*
X12181583Y-13637909D01*
X12167297Y-13609337D01*
X12167297Y-13352194D01*
X12438726Y-13637909D02*
X12410154Y-13652194D01*
X12353011Y-13652194D01*
X12324440Y-13637909D01*
X12310154Y-13609337D01*
X12310154Y-13495051D01*
X12324440Y-13466480D01*
X12353011Y-13452194D01*
X12410154Y-13452194D01*
X12438726Y-13466480D01*
X12453011Y-13495051D01*
X12453011Y-13523623D01*
X12310154Y-13552194D01*
X12567297Y-13637909D02*
X12595868Y-13652194D01*
X12653011Y-13652194D01*
X12681583Y-13637909D01*
X12695868Y-13609337D01*
X12695868Y-13595051D01*
X12681583Y-13566480D01*
X12653011Y-13552194D01*
X12610154Y-13552194D01*
X12581583Y-13537909D01*
X12567297Y-13509337D01*
X12567297Y-13495051D01*
X12581583Y-13466480D01*
X12610154Y-13452194D01*
X12653011Y-13452194D01*
X12681583Y-13466480D01*
X12795868Y-13766480D02*
X12810154Y-13752194D01*
X12838726Y-13709337D01*
X12853011Y-13680766D01*
X12867297Y-13637909D01*
X12881583Y-13566480D01*
X12881583Y-13509337D01*
X12867297Y-13437909D01*
X12853011Y-13395051D01*
X12838726Y-13366480D01*
X12810154Y-13323623D01*
X12795868Y-13309337D01*
M02*
