G04 #@! TF.GenerationSoftware,KiCad,Pcbnew,5.1.5+dfsg1-2build2*
G04 #@! TF.CreationDate,2022-04-22T12:54:42+02:00*
G04 #@! TF.ProjectId,Shield,53686965-6c64-42e6-9b69-6361645f7063,1.0*
G04 #@! TF.SameCoordinates,Original*
G04 #@! TF.FileFunction,Paste,Top*
G04 #@! TF.FilePolarity,Positive*
%FSLAX46Y46*%
G04 Gerber Fmt 4.6, Leading zero omitted, Abs format (unit mm)*
G04 Created by KiCad (PCBNEW 5.1.5+dfsg1-2build2) date 2022-04-22 12:54:42*
%MOMM*%
%LPD*%
G04 APERTURE LIST*
%ADD10R,1.200000X2.500000*%
%ADD11R,0.600000X0.750000*%
%ADD12R,0.750000X0.600000*%
%ADD13R,2.513000X3.402000*%
%ADD14R,1.525000X0.700000*%
%ADD15R,0.760000X0.820000*%
%ADD16R,0.980000X1.430000*%
%ADD17R,0.940000X1.430000*%
G04 APERTURE END LIST*
D10*
X78322800Y-94328800D03*
X80822800Y-94328800D03*
X83322800Y-94328800D03*
X83322800Y-99828800D03*
X80822800Y-99828800D03*
X78322800Y-99828800D03*
D11*
X122936000Y-78190000D03*
X122936000Y-79290000D03*
D12*
X111802000Y-80772000D03*
X110702000Y-80772000D03*
D11*
X117348000Y-75142000D03*
X117348000Y-76242000D03*
X117348000Y-80730000D03*
X117348000Y-81830000D03*
D12*
X110744000Y-76708000D03*
X111844000Y-76708000D03*
X100626000Y-82804000D03*
X99526000Y-82804000D03*
X100626000Y-78232000D03*
X99526000Y-78232000D03*
X100575200Y-74066400D03*
X99475200Y-74066400D03*
D13*
X129540000Y-78740000D03*
D14*
X132252000Y-76835000D03*
X132252000Y-78105000D03*
X132252000Y-79375000D03*
X132252000Y-80645000D03*
X126828000Y-80645000D03*
X126828000Y-79375000D03*
X126828000Y-78105000D03*
X126828000Y-76835000D03*
D15*
X93980000Y-79680000D03*
X93980000Y-82880000D03*
X93980000Y-72060000D03*
X93980000Y-75260000D03*
X88392000Y-79680000D03*
X88392000Y-82880000D03*
X88392000Y-72060000D03*
X88392000Y-75260000D03*
X83312000Y-79680000D03*
X83312000Y-82880000D03*
X83312000Y-72060000D03*
X83312000Y-75260000D03*
D16*
X128308000Y-72644000D03*
X126708000Y-72644000D03*
X129032000Y-84836000D03*
X127432000Y-84836000D03*
D17*
X104648000Y-82804000D03*
X106288000Y-82804000D03*
X104676000Y-78232000D03*
X106316000Y-78232000D03*
X104844000Y-74472800D03*
X106484000Y-74472800D03*
M02*
