%FSLAX45Y45*%
G04 Gerber Fmt 4.5, Leading zero omitted, Abs format (unit mm)*
G04 Created by KiCad (PCBNEW 5.1.5+dfsg1-2build2) date 2022-04-22 12:54:55*
%MOMM*%
%LPD*%
G04 APERTURE LIST*
%TA.AperFunction,Profile*%
%ADD10C,0.100000*%
%TD*%
%ADD11C,0.200000*%
%ADD12C,0.300000*%
G04 APERTURE END LIST*
D10*
X6319520Y-6604000D02*
X7467600Y-6604000D01*
X6314440Y-10571480D02*
X6319520Y-6604000D01*
X14478000Y-6604000D02*
X14472920Y-10571480D01*
X7467600Y-6604000D02*
X14478000Y-6604000D01*
X6314440Y-10571480D02*
X14472920Y-10571480D01*
X6786880Y-6908800D02*
G75*
G03X6786880Y-6908800I-152400J0D01*
G01*
X6863080Y-10261600D02*
G75*
G03X6863080Y-10261600I-152400J0D01*
G01*
X14325600Y-10261600D02*
G75*
G03X14325600Y-10261600I-152400J0D01*
G01*
X14325600Y-6893560D02*
G75*
G03X14325600Y-6893560I-152400J0D01*
G01*
D11*
X6477440Y-7742200D02*
X6707440Y-7972200D01*
X6707440Y-7742200D02*
X6477440Y-7972200D01*
X6477440Y-8942200D02*
X6707440Y-9172200D01*
X6707440Y-8942200D02*
X6477440Y-9172200D01*
D12*
X6595868Y-11042194D02*
X6595868Y-10742194D01*
X6667297Y-10742194D01*
X6710154Y-10756480D01*
X6738726Y-10785052D01*
X6753011Y-10813623D01*
X6767297Y-10870766D01*
X6767297Y-10913623D01*
X6753011Y-10970766D01*
X6738726Y-10999337D01*
X6710154Y-11027909D01*
X6667297Y-11042194D01*
X6595868Y-11042194D01*
X6895868Y-11042194D02*
X6895868Y-10842194D01*
X6895868Y-10899337D02*
X6910154Y-10870766D01*
X6924440Y-10856480D01*
X6953011Y-10842194D01*
X6981583Y-10842194D01*
X7081583Y-11042194D02*
X7081583Y-10842194D01*
X7081583Y-10742194D02*
X7067297Y-10756480D01*
X7081583Y-10770766D01*
X7095868Y-10756480D01*
X7081583Y-10742194D01*
X7081583Y-10770766D01*
X7267297Y-11042194D02*
X7238726Y-11027909D01*
X7224440Y-10999337D01*
X7224440Y-10742194D01*
X7424440Y-11042194D02*
X7395868Y-11027909D01*
X7381583Y-10999337D01*
X7381583Y-10742194D01*
X7767297Y-11042194D02*
X7767297Y-10742194D01*
X7867297Y-10956480D01*
X7967297Y-10742194D01*
X7967297Y-11042194D01*
X8238726Y-11042194D02*
X8238726Y-10885052D01*
X8224440Y-10856480D01*
X8195868Y-10842194D01*
X8138726Y-10842194D01*
X8110154Y-10856480D01*
X8238726Y-11027909D02*
X8210154Y-11042194D01*
X8138726Y-11042194D01*
X8110154Y-11027909D01*
X8095868Y-10999337D01*
X8095868Y-10970766D01*
X8110154Y-10942194D01*
X8138726Y-10927909D01*
X8210154Y-10927909D01*
X8238726Y-10913623D01*
X8381583Y-10842194D02*
X8381583Y-11142194D01*
X8381583Y-10856480D02*
X8410154Y-10842194D01*
X8467297Y-10842194D01*
X8495868Y-10856480D01*
X8510154Y-10870766D01*
X8524440Y-10899337D01*
X8524440Y-10985052D01*
X8510154Y-11013623D01*
X8495868Y-11027909D01*
X8467297Y-11042194D01*
X8410154Y-11042194D01*
X8381583Y-11027909D01*
X8653011Y-11013623D02*
X8667297Y-11027909D01*
X8653011Y-11042194D01*
X8638726Y-11027909D01*
X8653011Y-11013623D01*
X8653011Y-11042194D01*
X8653011Y-10856480D02*
X8667297Y-10870766D01*
X8653011Y-10885052D01*
X8638726Y-10870766D01*
X8653011Y-10856480D01*
X8653011Y-10885052D01*
X6079440Y-11421480D02*
X6309440Y-11651480D01*
X6309440Y-11421480D02*
X6079440Y-11651480D01*
X6581583Y-11400766D02*
X6595868Y-11386480D01*
X6624440Y-11372194D01*
X6695868Y-11372194D01*
X6724440Y-11386480D01*
X6738726Y-11400766D01*
X6753011Y-11429337D01*
X6753011Y-11457909D01*
X6738726Y-11500766D01*
X6567297Y-11672194D01*
X6753011Y-11672194D01*
X6881583Y-11643623D02*
X6895868Y-11657909D01*
X6881583Y-11672194D01*
X6867297Y-11657909D01*
X6881583Y-11643623D01*
X6881583Y-11672194D01*
X6995868Y-11372194D02*
X7181583Y-11372194D01*
X7081583Y-11486480D01*
X7124440Y-11486480D01*
X7153011Y-11500766D01*
X7167297Y-11515051D01*
X7181583Y-11543623D01*
X7181583Y-11615051D01*
X7167297Y-11643623D01*
X7153011Y-11657909D01*
X7124440Y-11672194D01*
X7038726Y-11672194D01*
X7010154Y-11657909D01*
X6995868Y-11643623D01*
X7367297Y-11372194D02*
X7395868Y-11372194D01*
X7424440Y-11386480D01*
X7438726Y-11400766D01*
X7453011Y-11429337D01*
X7467297Y-11486480D01*
X7467297Y-11557909D01*
X7453011Y-11615051D01*
X7438726Y-11643623D01*
X7424440Y-11657909D01*
X7395868Y-11672194D01*
X7367297Y-11672194D01*
X7338726Y-11657909D01*
X7324440Y-11643623D01*
X7310154Y-11615051D01*
X7295868Y-11557909D01*
X7295868Y-11486480D01*
X7310154Y-11429337D01*
X7324440Y-11400766D01*
X7338726Y-11386480D01*
X7367297Y-11372194D01*
X7595868Y-11672194D02*
X7595868Y-11472194D01*
X7595868Y-11500766D02*
X7610154Y-11486480D01*
X7638726Y-11472194D01*
X7681583Y-11472194D01*
X7710154Y-11486480D01*
X7724440Y-11515051D01*
X7724440Y-11672194D01*
X7724440Y-11515051D02*
X7738726Y-11486480D01*
X7767297Y-11472194D01*
X7810154Y-11472194D01*
X7838726Y-11486480D01*
X7853011Y-11515051D01*
X7853011Y-11672194D01*
X7995868Y-11672194D02*
X7995868Y-11472194D01*
X7995868Y-11500766D02*
X8010154Y-11486480D01*
X8038726Y-11472194D01*
X8081583Y-11472194D01*
X8110154Y-11486480D01*
X8124440Y-11515051D01*
X8124440Y-11672194D01*
X8124440Y-11515051D02*
X8138726Y-11486480D01*
X8167297Y-11472194D01*
X8210154Y-11472194D01*
X8238726Y-11486480D01*
X8253011Y-11515051D01*
X8253011Y-11672194D01*
X8838726Y-11357909D02*
X8581583Y-11743623D01*
X9224440Y-11372194D02*
X9253011Y-11372194D01*
X9281583Y-11386480D01*
X9295868Y-11400766D01*
X9310154Y-11429337D01*
X9324440Y-11486480D01*
X9324440Y-11557909D01*
X9310154Y-11615051D01*
X9295868Y-11643623D01*
X9281583Y-11657909D01*
X9253011Y-11672194D01*
X9224440Y-11672194D01*
X9195868Y-11657909D01*
X9181583Y-11643623D01*
X9167297Y-11615051D01*
X9153011Y-11557909D01*
X9153011Y-11486480D01*
X9167297Y-11429337D01*
X9181583Y-11400766D01*
X9195868Y-11386480D01*
X9224440Y-11372194D01*
X9453011Y-11643623D02*
X9467297Y-11657909D01*
X9453011Y-11672194D01*
X9438726Y-11657909D01*
X9453011Y-11643623D01*
X9453011Y-11672194D01*
X9653011Y-11372194D02*
X9681583Y-11372194D01*
X9710154Y-11386480D01*
X9724440Y-11400766D01*
X9738726Y-11429337D01*
X9753011Y-11486480D01*
X9753011Y-11557909D01*
X9738726Y-11615051D01*
X9724440Y-11643623D01*
X9710154Y-11657909D01*
X9681583Y-11672194D01*
X9653011Y-11672194D01*
X9624440Y-11657909D01*
X9610154Y-11643623D01*
X9595868Y-11615051D01*
X9581583Y-11557909D01*
X9581583Y-11486480D01*
X9595868Y-11429337D01*
X9610154Y-11400766D01*
X9624440Y-11386480D01*
X9653011Y-11372194D01*
X9895868Y-11672194D02*
X9953011Y-11672194D01*
X9981583Y-11657909D01*
X9995868Y-11643623D01*
X10024440Y-11600766D01*
X10038726Y-11543623D01*
X10038726Y-11429337D01*
X10024440Y-11400766D01*
X10010154Y-11386480D01*
X9981583Y-11372194D01*
X9924440Y-11372194D01*
X9895868Y-11386480D01*
X9881583Y-11400766D01*
X9867297Y-11429337D01*
X9867297Y-11500766D01*
X9881583Y-11529337D01*
X9895868Y-11543623D01*
X9924440Y-11557909D01*
X9981583Y-11557909D01*
X10010154Y-11543623D01*
X10024440Y-11529337D01*
X10038726Y-11500766D01*
X10324440Y-11672194D02*
X10153011Y-11672194D01*
X10238726Y-11672194D02*
X10238726Y-11372194D01*
X10210154Y-11415051D01*
X10181583Y-11443623D01*
X10153011Y-11457909D01*
X10438726Y-11372194D02*
X10438726Y-11429337D01*
X10553011Y-11372194D02*
X10553011Y-11429337D01*
X10995868Y-11786480D02*
X10981583Y-11772194D01*
X10953011Y-11729337D01*
X10938726Y-11700766D01*
X10924440Y-11657909D01*
X10910154Y-11586480D01*
X10910154Y-11529337D01*
X10924440Y-11457909D01*
X10938726Y-11415051D01*
X10953011Y-11386480D01*
X10981583Y-11343623D01*
X10995868Y-11329337D01*
X11095868Y-11400766D02*
X11110154Y-11386480D01*
X11138726Y-11372194D01*
X11210154Y-11372194D01*
X11238726Y-11386480D01*
X11253011Y-11400766D01*
X11267297Y-11429337D01*
X11267297Y-11457909D01*
X11253011Y-11500766D01*
X11081583Y-11672194D01*
X11267297Y-11672194D01*
X11624440Y-11672194D02*
X11624440Y-11372194D01*
X11753011Y-11672194D02*
X11753011Y-11515051D01*
X11738726Y-11486480D01*
X11710154Y-11472194D01*
X11667297Y-11472194D01*
X11638726Y-11486480D01*
X11624440Y-11500766D01*
X11938726Y-11672194D02*
X11910154Y-11657909D01*
X11895868Y-11643623D01*
X11881583Y-11615051D01*
X11881583Y-11529337D01*
X11895868Y-11500766D01*
X11910154Y-11486480D01*
X11938726Y-11472194D01*
X11981583Y-11472194D01*
X12010154Y-11486480D01*
X12024440Y-11500766D01*
X12038726Y-11529337D01*
X12038726Y-11615051D01*
X12024440Y-11643623D01*
X12010154Y-11657909D01*
X11981583Y-11672194D01*
X11938726Y-11672194D01*
X12210154Y-11672194D02*
X12181583Y-11657909D01*
X12167297Y-11629337D01*
X12167297Y-11372194D01*
X12438726Y-11657909D02*
X12410154Y-11672194D01*
X12353011Y-11672194D01*
X12324440Y-11657909D01*
X12310154Y-11629337D01*
X12310154Y-11515051D01*
X12324440Y-11486480D01*
X12353011Y-11472194D01*
X12410154Y-11472194D01*
X12438726Y-11486480D01*
X12453011Y-11515051D01*
X12453011Y-11543623D01*
X12310154Y-11572194D01*
X12567297Y-11657909D02*
X12595868Y-11672194D01*
X12653011Y-11672194D01*
X12681583Y-11657909D01*
X12695868Y-11629337D01*
X12695868Y-11615051D01*
X12681583Y-11586480D01*
X12653011Y-11572194D01*
X12610154Y-11572194D01*
X12581583Y-11557909D01*
X12567297Y-11529337D01*
X12567297Y-11515051D01*
X12581583Y-11486480D01*
X12610154Y-11472194D01*
X12653011Y-11472194D01*
X12681583Y-11486480D01*
X12795868Y-11786480D02*
X12810154Y-11772194D01*
X12838726Y-11729337D01*
X12853011Y-11700766D01*
X12867297Y-11657909D01*
X12881583Y-11586480D01*
X12881583Y-11529337D01*
X12867297Y-11457909D01*
X12853011Y-11415051D01*
X12838726Y-11386480D01*
X12810154Y-11343623D01*
X12795868Y-11329337D01*
X13338726Y-11786480D02*
X13324440Y-11772194D01*
X13295868Y-11729337D01*
X13281583Y-11700766D01*
X13267297Y-11657909D01*
X13253011Y-11586480D01*
X13253011Y-11529337D01*
X13267297Y-11457909D01*
X13281583Y-11415051D01*
X13295868Y-11386480D01*
X13324440Y-11343623D01*
X13338726Y-11329337D01*
X13453011Y-11472194D02*
X13453011Y-11672194D01*
X13453011Y-11500766D02*
X13467297Y-11486480D01*
X13495868Y-11472194D01*
X13538726Y-11472194D01*
X13567297Y-11486480D01*
X13581583Y-11515051D01*
X13581583Y-11672194D01*
X13767297Y-11672194D02*
X13738726Y-11657909D01*
X13724440Y-11643623D01*
X13710154Y-11615051D01*
X13710154Y-11529337D01*
X13724440Y-11500766D01*
X13738726Y-11486480D01*
X13767297Y-11472194D01*
X13810154Y-11472194D01*
X13838726Y-11486480D01*
X13853011Y-11500766D01*
X13867297Y-11529337D01*
X13867297Y-11615051D01*
X13853011Y-11643623D01*
X13838726Y-11657909D01*
X13810154Y-11672194D01*
X13767297Y-11672194D01*
X13953011Y-11472194D02*
X14067297Y-11472194D01*
X13995868Y-11372194D02*
X13995868Y-11629337D01*
X14010154Y-11657909D01*
X14038726Y-11672194D01*
X14067297Y-11672194D01*
X14395868Y-11472194D02*
X14395868Y-11772194D01*
X14395868Y-11486480D02*
X14424440Y-11472194D01*
X14481583Y-11472194D01*
X14510154Y-11486480D01*
X14524440Y-11500766D01*
X14538726Y-11529337D01*
X14538726Y-11615051D01*
X14524440Y-11643623D01*
X14510154Y-11657909D01*
X14481583Y-11672194D01*
X14424440Y-11672194D01*
X14395868Y-11657909D01*
X14710154Y-11672194D02*
X14681583Y-11657909D01*
X14667297Y-11629337D01*
X14667297Y-11372194D01*
X14953011Y-11672194D02*
X14953011Y-11515051D01*
X14938726Y-11486480D01*
X14910154Y-11472194D01*
X14853011Y-11472194D01*
X14824440Y-11486480D01*
X14953011Y-11657909D02*
X14924440Y-11672194D01*
X14853011Y-11672194D01*
X14824440Y-11657909D01*
X14810154Y-11629337D01*
X14810154Y-11600766D01*
X14824440Y-11572194D01*
X14853011Y-11557909D01*
X14924440Y-11557909D01*
X14953011Y-11543623D01*
X15053011Y-11472194D02*
X15167297Y-11472194D01*
X15095868Y-11372194D02*
X15095868Y-11629337D01*
X15110154Y-11657909D01*
X15138726Y-11672194D01*
X15167297Y-11672194D01*
X15381583Y-11657909D02*
X15353011Y-11672194D01*
X15295868Y-11672194D01*
X15267297Y-11657909D01*
X15253011Y-11629337D01*
X15253011Y-11515051D01*
X15267297Y-11486480D01*
X15295868Y-11472194D01*
X15353011Y-11472194D01*
X15381583Y-11486480D01*
X15395868Y-11515051D01*
X15395868Y-11543623D01*
X15253011Y-11572194D01*
X15653011Y-11672194D02*
X15653011Y-11372194D01*
X15653011Y-11657909D02*
X15624440Y-11672194D01*
X15567297Y-11672194D01*
X15538726Y-11657909D01*
X15524440Y-11643623D01*
X15510154Y-11615051D01*
X15510154Y-11529337D01*
X15524440Y-11500766D01*
X15538726Y-11486480D01*
X15567297Y-11472194D01*
X15624440Y-11472194D01*
X15653011Y-11486480D01*
X15767297Y-11786480D02*
X15781583Y-11772194D01*
X15810154Y-11729337D01*
X15824440Y-11700766D01*
X15838726Y-11657909D01*
X15853011Y-11586480D01*
X15853011Y-11529337D01*
X15838726Y-11457909D01*
X15824440Y-11415051D01*
X15810154Y-11386480D01*
X15781583Y-11343623D01*
X15767297Y-11329337D01*
M02*
