G04 #@! TF.GenerationSoftware,KiCad,Pcbnew,5.1.5+dfsg1-2build2*
G04 #@! TF.CreationDate,2022-04-22T12:54:42+02:00*
G04 #@! TF.ProjectId,Shield,53686965-6c64-42e6-9b69-6361645f7063,1.0*
G04 #@! TF.SameCoordinates,Original*
G04 #@! TF.FileFunction,Copper,L1,Top*
G04 #@! TF.FilePolarity,Positive*
%FSLAX46Y46*%
G04 Gerber Fmt 4.6, Leading zero omitted, Abs format (unit mm)*
G04 Created by KiCad (PCBNEW 5.1.5+dfsg1-2build2) date 2022-04-22 12:54:42*
%MOMM*%
%LPD*%
G04 APERTURE LIST*
%ADD10C,1.500000*%
%ADD11C,1.524000*%
%ADD12C,1.400000*%
%ADD13C,1.800000*%
%ADD14R,1.200000X2.500000*%
%ADD15R,0.600000X0.750000*%
%ADD16R,0.750000X0.600000*%
%ADD17C,1.425000*%
%ADD18R,1.425000X1.425000*%
%ADD19R,2.513000X3.402000*%
%ADD20R,1.525000X0.700000*%
%ADD21R,0.760000X0.820000*%
%ADD22R,0.980000X1.430000*%
%ADD23R,0.940000X1.430000*%
%ADD24C,0.800000*%
%ADD25C,0.500000*%
%ADD26C,0.400000*%
%ADD27C,0.250000*%
G04 APERTURE END LIST*
D10*
X72847200Y-99512000D03*
X72847200Y-96012000D03*
X141782800Y-98242000D03*
X141782800Y-94742000D03*
D11*
X88900000Y-88900000D03*
X91440000Y-88900000D03*
X93980000Y-88900000D03*
X96520000Y-88900000D03*
X99060000Y-88900000D03*
X101600000Y-88900000D03*
X104140000Y-88900000D03*
X106680000Y-88900000D03*
X109220000Y-88900000D03*
X111760000Y-88900000D03*
X114300000Y-88900000D03*
X116840000Y-88900000D03*
X119380000Y-88900000D03*
X121920000Y-88900000D03*
X88900000Y-68580000D03*
X91440000Y-68580000D03*
X93980000Y-68580000D03*
X96520000Y-68580000D03*
X99060000Y-68580000D03*
X101600000Y-68580000D03*
X104140000Y-68580000D03*
X106680000Y-68580000D03*
X109220000Y-68580000D03*
X111760000Y-68580000D03*
X114300000Y-68580000D03*
X116840000Y-68580000D03*
X119380000Y-68580000D03*
X121920000Y-68580000D03*
D12*
X68224400Y-82022000D03*
X70764400Y-83042000D03*
X68224400Y-84062000D03*
X70764400Y-85082000D03*
X68224400Y-86102000D03*
X70764400Y-87122000D03*
D13*
X122275600Y-98094800D03*
X117195600Y-98094800D03*
D10*
X71526400Y-72029200D03*
X71526400Y-68529200D03*
D14*
X78322800Y-94328800D03*
X80822800Y-94328800D03*
X83322800Y-94328800D03*
X83322800Y-99828800D03*
X80822800Y-99828800D03*
X78322800Y-99828800D03*
D15*
X122936000Y-78190000D03*
X122936000Y-79290000D03*
D16*
X111802000Y-80772000D03*
X110702000Y-80772000D03*
D15*
X117348000Y-75142000D03*
X117348000Y-76242000D03*
X117348000Y-80730000D03*
X117348000Y-81830000D03*
D16*
X110744000Y-76708000D03*
X111844000Y-76708000D03*
X100626000Y-82804000D03*
X99526000Y-82804000D03*
X100626000Y-78232000D03*
X99526000Y-78232000D03*
X100575200Y-74066400D03*
X99475200Y-74066400D03*
D10*
X107233600Y-97332800D03*
X103733600Y-97332800D03*
X97073600Y-97332800D03*
X93573600Y-97332800D03*
D17*
X133197600Y-96856800D03*
D18*
X133197600Y-98856800D03*
D19*
X129540000Y-78740000D03*
D20*
X132252000Y-76835000D03*
X132252000Y-78105000D03*
X132252000Y-79375000D03*
X132252000Y-80645000D03*
X126828000Y-80645000D03*
X126828000Y-79375000D03*
X126828000Y-78105000D03*
X126828000Y-76835000D03*
D21*
X93980000Y-79680000D03*
X93980000Y-82880000D03*
X93980000Y-72060000D03*
X93980000Y-75260000D03*
X88392000Y-79680000D03*
X88392000Y-82880000D03*
X88392000Y-72060000D03*
X88392000Y-75260000D03*
X83312000Y-79680000D03*
X83312000Y-82880000D03*
X83312000Y-72060000D03*
X83312000Y-75260000D03*
D22*
X128308000Y-72644000D03*
X126708000Y-72644000D03*
X129032000Y-84836000D03*
X127432000Y-84836000D03*
D23*
X104648000Y-82804000D03*
X106288000Y-82804000D03*
X104676000Y-78232000D03*
X106316000Y-78232000D03*
X104844000Y-74472800D03*
X106484000Y-74472800D03*
D24*
X126608001Y-86868000D03*
X102420000Y-74066400D03*
X100584000Y-76200000D03*
X98044000Y-71374000D03*
X97536000Y-79756000D03*
X113284000Y-75692000D03*
X112522000Y-84836000D03*
X134112000Y-76708000D03*
X131064000Y-84836000D03*
X81971600Y-91612000D03*
X85344000Y-93980000D03*
X85344000Y-75184000D03*
X85344000Y-79756000D03*
X73914000Y-80264000D03*
X77012800Y-80314800D03*
X90348000Y-75260000D03*
X90348000Y-79680000D03*
X99314000Y-80010000D03*
X76911200Y-84785200D03*
X73914000Y-84785200D03*
X96012000Y-75260000D03*
X95936000Y-79680000D03*
X100330000Y-84582000D03*
X76911200Y-87071200D03*
X73931132Y-87082163D03*
X110998000Y-78486000D03*
X108204000Y-72390000D03*
X108204000Y-80772000D03*
X110744000Y-70358000D03*
X110744000Y-75184000D03*
X112014000Y-72644000D03*
X77724000Y-91135200D03*
X114230000Y-83750000D03*
D25*
X127508000Y-84760000D02*
X127432000Y-84836000D01*
D26*
X126235000Y-79290000D02*
X126320000Y-79375000D01*
X122936000Y-79290000D02*
X124418000Y-79290000D01*
X123910000Y-79290000D02*
X126235000Y-79290000D01*
X126492000Y-84836000D02*
X127432000Y-84836000D01*
X123910000Y-82254000D02*
X126492000Y-84836000D01*
X126320000Y-76835000D02*
X121793000Y-76835000D01*
X121793000Y-76835000D02*
X120904000Y-77724000D01*
X120904000Y-77724000D02*
X120904000Y-80264000D01*
X123910000Y-79290000D02*
X123910000Y-82254000D01*
X120904000Y-80264000D02*
X121920000Y-81280000D01*
X121920000Y-81280000D02*
X123952000Y-81280000D01*
X126828000Y-72764000D02*
X126708000Y-72644000D01*
X126828000Y-76835000D02*
X126828000Y-72764000D01*
X126608001Y-84952001D02*
X126492000Y-84836000D01*
X126608001Y-86868000D02*
X126608001Y-84952001D01*
D25*
X81026000Y-99828800D02*
X80822800Y-99828800D01*
X81127600Y-99727200D02*
X81026000Y-99828800D01*
X117246400Y-101447600D02*
X117246400Y-98196400D01*
X116789200Y-101904800D02*
X117246400Y-101447600D01*
X82248800Y-101904800D02*
X116789200Y-101904800D01*
X80822800Y-100478800D02*
X82248800Y-101904800D01*
X80822800Y-99828800D02*
X80822800Y-100478800D01*
X141168000Y-98856800D02*
X141782800Y-98242000D01*
X133197600Y-98856800D02*
X141168000Y-98856800D01*
D26*
X126235000Y-78190000D02*
X126320000Y-78105000D01*
X122936000Y-78190000D02*
X126235000Y-78190000D01*
X105114000Y-74242000D02*
X104844000Y-73972000D01*
D27*
X102420000Y-73972000D02*
X102420000Y-73972000D01*
X102420000Y-74066400D02*
X104844000Y-74066400D01*
X100575200Y-74066400D02*
X101817600Y-74066400D01*
X101817600Y-74066400D02*
X102412800Y-74066400D01*
X100584000Y-78190000D02*
X100626000Y-78232000D01*
X100584000Y-76200000D02*
X100584000Y-78190000D01*
X115316000Y-71374000D02*
X98044000Y-71374000D01*
X116078001Y-70611999D02*
X115316000Y-71374000D01*
X116078001Y-69341999D02*
X116078001Y-70611999D01*
X116840000Y-68580000D02*
X116078001Y-69341999D01*
X100626000Y-78232000D02*
X104676000Y-78232000D01*
D26*
X97536000Y-79756000D02*
X97536000Y-79756000D01*
D27*
X99060000Y-81280000D02*
X97536000Y-79756000D01*
X100584000Y-81280000D02*
X99060000Y-81280000D01*
X100626000Y-82804000D02*
X100584000Y-81280000D01*
X112268000Y-76708000D02*
X113284000Y-75692000D01*
X111844000Y-76708000D02*
X112268000Y-76708000D01*
X112522000Y-84836000D02*
X104394000Y-84836000D01*
X104394000Y-84836000D02*
X103378000Y-83820000D01*
X103378000Y-83820000D02*
X103378000Y-82804000D01*
X100626000Y-82804000D02*
X103378000Y-82804000D01*
X103378000Y-82804000D02*
X104648000Y-82804000D01*
D26*
X126320000Y-80645000D02*
X126320000Y-81616000D01*
X126320000Y-81616000D02*
X127508000Y-82804000D01*
X129032000Y-83721000D02*
X129032000Y-84836000D01*
X128115000Y-82804000D02*
X129032000Y-83721000D01*
X127508000Y-82804000D02*
X128115000Y-82804000D01*
X133414500Y-76835000D02*
X133541500Y-76708000D01*
X132252000Y-76835000D02*
X133414500Y-76835000D01*
X133541500Y-76708000D02*
X134112000Y-76708000D01*
X134112000Y-76708000D02*
X134112000Y-76708000D01*
X129032000Y-84836000D02*
X131064000Y-84836000D01*
X131064000Y-84836000D02*
X131064000Y-84836000D01*
X132252000Y-87548000D02*
X132252000Y-80645000D01*
X133414500Y-80645000D02*
X132252000Y-80645000D01*
X135636000Y-74676000D02*
X135636000Y-78423500D01*
X135636000Y-78423500D02*
X133414500Y-80645000D01*
X133604000Y-72644000D02*
X135636000Y-74676000D01*
X128308000Y-72644000D02*
X133604000Y-72644000D01*
X132252000Y-87548000D02*
X132252000Y-91612000D01*
D25*
X133197600Y-92557600D02*
X133197600Y-96856800D01*
X132252000Y-91612000D02*
X133197600Y-92557600D01*
D26*
X81666800Y-91612000D02*
X81971600Y-91612000D01*
X80772000Y-92506800D02*
X81666800Y-91612000D01*
X80772000Y-93871600D02*
X80772000Y-92506800D01*
X81127600Y-94227200D02*
X80772000Y-93871600D01*
D25*
X139598400Y-92557600D02*
X141782800Y-94742000D01*
X133197600Y-92557600D02*
X139598400Y-92557600D01*
D26*
X81971600Y-91612000D02*
X132252000Y-91612000D01*
X85344000Y-93980000D02*
X85344000Y-93980000D01*
X85268000Y-79680000D02*
X85344000Y-79756000D01*
X83312000Y-79680000D02*
X85268000Y-79680000D01*
X85268000Y-75260000D02*
X85344000Y-75184000D01*
X83312000Y-75260000D02*
X85268000Y-75260000D01*
D27*
X90271600Y-94030800D02*
X93573600Y-97332800D01*
X90220800Y-93980000D02*
X90271600Y-94030800D01*
X85344000Y-93980000D02*
X90220800Y-93980000D01*
X98203000Y-77216000D02*
X99475200Y-75943800D01*
X87376000Y-77216000D02*
X98203000Y-77216000D01*
X99475200Y-75943800D02*
X99475200Y-74066400D01*
X85344000Y-75184000D02*
X87376000Y-77216000D01*
X67919600Y-80264000D02*
X73914000Y-80264000D01*
X66497200Y-81686400D02*
X67919600Y-80264000D01*
X66497200Y-85496400D02*
X66497200Y-81686400D01*
X67056000Y-86055200D02*
X66497200Y-85496400D01*
X67187651Y-86055200D02*
X67056000Y-86055200D01*
X67234451Y-86102000D02*
X67187651Y-86055200D01*
X68224400Y-86102000D02*
X67234451Y-86102000D01*
X77647600Y-79680000D02*
X77012800Y-80314800D01*
X83312000Y-79680000D02*
X77647600Y-79680000D01*
D26*
X83312000Y-82880000D02*
X88392000Y-82880000D01*
X88392000Y-82880000D02*
X93980000Y-82880000D01*
X117856000Y-90424000D02*
X116840000Y-88900000D01*
X122936000Y-90424000D02*
X117856000Y-90424000D01*
X124460000Y-86868000D02*
X124460000Y-89408000D01*
X124460000Y-89408000D02*
X122936000Y-90424000D01*
X123444000Y-85852000D02*
X124460000Y-86868000D01*
X93980000Y-82880000D02*
X93980000Y-85852000D01*
X117348000Y-81830000D02*
X117348000Y-85852000D01*
X117348000Y-85852000D02*
X123444000Y-85852000D01*
X93980000Y-85852000D02*
X117348000Y-85852000D01*
X103733600Y-97332800D02*
X103733600Y-97840800D01*
X88392000Y-75260000D02*
X90348000Y-75260000D01*
X88392000Y-79680000D02*
X90348000Y-79680000D01*
X90348000Y-75260000D02*
X90348000Y-75260000D01*
X90348000Y-79680000D02*
X90348000Y-79680000D01*
D27*
X91796000Y-78232000D02*
X99526000Y-78232000D01*
X90348000Y-79680000D02*
X91796000Y-78232000D01*
X99314000Y-80010000D02*
X99314000Y-78486000D01*
X73812400Y-84632800D02*
X73812400Y-84632800D01*
X72136000Y-81737200D02*
X72136000Y-82956400D01*
X70053200Y-81280000D02*
X71678800Y-81280000D01*
X69697600Y-81635600D02*
X70053200Y-81280000D01*
X71678800Y-81280000D02*
X72136000Y-81737200D01*
X69697600Y-82550000D02*
X69697600Y-81635600D01*
X68924399Y-83323201D02*
X69697600Y-82550000D01*
X68924399Y-83362001D02*
X68924399Y-83323201D01*
X72136000Y-82956400D02*
X73812400Y-84632800D01*
X68224400Y-84062000D02*
X68924399Y-83362001D01*
X80822800Y-81127600D02*
X77165200Y-84785200D01*
X86493002Y-79680000D02*
X85045402Y-81127600D01*
X77165200Y-84785200D02*
X76911200Y-84785200D01*
X85045402Y-81127600D02*
X80822800Y-81127600D01*
X88392000Y-79680000D02*
X86493002Y-79680000D01*
D26*
X93980000Y-79680000D02*
X95936000Y-79680000D01*
X93980000Y-75260000D02*
X96012000Y-75260000D01*
X96012000Y-75260000D02*
X96012000Y-75260000D01*
X95936000Y-79680000D02*
X95936000Y-79680000D01*
D27*
X98494315Y-82804000D02*
X98901000Y-82804000D01*
X98901000Y-82804000D02*
X99526000Y-82804000D01*
X95936000Y-80245685D02*
X98494315Y-82804000D01*
X95936000Y-79680000D02*
X95936000Y-80245685D01*
X99526000Y-83778000D02*
X99526000Y-82804000D01*
X100330000Y-84582000D02*
X99526000Y-83778000D01*
X73710800Y-87172800D02*
X73710800Y-87172800D01*
X70764400Y-83042000D02*
X73931132Y-86208732D01*
X73931132Y-86208732D02*
X73931132Y-87082163D01*
X93350000Y-79680000D02*
X93980000Y-79680000D01*
X91140400Y-81889600D02*
X93350000Y-79680000D01*
X81737200Y-82397600D02*
X82245200Y-81889600D01*
X81788000Y-84124800D02*
X81737200Y-82397600D01*
X82245200Y-81889600D02*
X91140400Y-81889600D01*
X78841600Y-87071200D02*
X81788000Y-84124800D01*
X76911200Y-87071200D02*
X78841600Y-87071200D01*
X109220000Y-68580000D02*
X107696000Y-67056000D01*
X107696000Y-67056000D02*
X80264000Y-67056000D01*
X80264000Y-67056000D02*
X80264000Y-67056000D01*
X111802000Y-79290000D02*
X111802000Y-80772000D01*
X110998000Y-78486000D02*
X111802000Y-79290000D01*
X72999600Y-67056000D02*
X80264000Y-67056000D01*
X71526400Y-68529200D02*
X72999600Y-67056000D01*
X108204000Y-72390000D02*
X108204000Y-72390000D01*
X108204000Y-80772000D02*
X110702000Y-80772000D01*
X96012000Y-72136000D02*
X107950000Y-72136000D01*
X94488000Y-70612000D02*
X96012000Y-72136000D01*
X91440000Y-70612000D02*
X94488000Y-70612000D01*
X107950000Y-72136000D02*
X108204000Y-72390000D01*
X91440000Y-68580000D02*
X91440000Y-70612000D01*
X93980000Y-68580000D02*
X93980000Y-68834000D01*
X93980000Y-68834000D02*
X95250000Y-70104000D01*
X95250000Y-70104000D02*
X95504000Y-70358000D01*
X95504000Y-70358000D02*
X110744000Y-70358000D01*
X110744000Y-70358000D02*
X110744000Y-70358000D01*
X110744000Y-76708000D02*
X110744000Y-75184000D01*
X110744000Y-75184000D02*
X110744000Y-75184000D01*
D26*
X117348000Y-80730000D02*
X117348000Y-76242000D01*
X119380000Y-78232000D02*
X117348000Y-78232000D01*
X119380000Y-72644000D02*
X119380000Y-78232000D01*
X112014000Y-72644000D02*
X112014000Y-72644000D01*
X112014000Y-72644000D02*
X119380000Y-72644000D01*
D25*
X117348000Y-86868000D02*
X119380000Y-88900000D01*
X80264000Y-86868000D02*
X117348000Y-86868000D01*
X77724000Y-89408000D02*
X80264000Y-86868000D01*
D26*
X77764000Y-92120000D02*
X77724000Y-92080000D01*
D25*
X77764000Y-92394400D02*
X77764000Y-92120000D01*
X78282800Y-92913200D02*
X77764000Y-92394400D01*
X78282800Y-93882400D02*
X78282800Y-92913200D01*
X78627600Y-94227200D02*
X78282800Y-93882400D01*
X77724000Y-91033600D02*
X77724000Y-89408000D01*
X77724000Y-92080000D02*
X77724000Y-91033600D01*
D26*
X93980000Y-72060000D02*
X88392000Y-72060000D01*
X88392000Y-72060000D02*
X83312000Y-72060000D01*
X83312000Y-72060000D02*
X76784000Y-72060000D01*
X76784000Y-72060000D02*
X75692000Y-73152000D01*
D25*
X114230000Y-83750000D02*
X114230000Y-83750000D01*
X116120000Y-75142000D02*
X117348000Y-75142000D01*
X115316000Y-75946000D02*
X116120000Y-75142000D01*
X115316000Y-82664000D02*
X115316000Y-75946000D01*
X114230000Y-83750000D02*
X115316000Y-82664000D01*
X108712000Y-83750000D02*
X114230000Y-83750000D01*
X107766000Y-82804000D02*
X108712000Y-83750000D01*
X106288000Y-82804000D02*
X107766000Y-82804000D01*
X106316000Y-82776000D02*
X106288000Y-82804000D01*
X106316000Y-74140000D02*
X106316000Y-82776000D01*
X106484000Y-73972000D02*
X106316000Y-74140000D01*
X85344000Y-97028000D02*
X85242400Y-97028000D01*
X94940000Y-99466400D02*
X97073600Y-97332800D01*
X91440000Y-99466400D02*
X94940000Y-99466400D01*
X89763600Y-97790000D02*
X91440000Y-99466400D01*
X89001600Y-97028000D02*
X89763600Y-97790000D01*
X85242400Y-97028000D02*
X89001600Y-97028000D01*
X106484000Y-73972000D02*
X106484000Y-73616998D01*
X105917402Y-73050400D02*
X106484000Y-73616998D01*
X95850400Y-73050400D02*
X105917402Y-73050400D01*
X94860000Y-72060000D02*
X95850400Y-73050400D01*
X93980000Y-72060000D02*
X94860000Y-72060000D01*
X74569200Y-72029200D02*
X75692000Y-73152000D01*
X71526400Y-72029200D02*
X74569200Y-72029200D01*
X72898000Y-89763600D02*
X75641200Y-89763600D01*
X72288400Y-89204800D02*
X72745600Y-89662000D01*
X72288400Y-86606000D02*
X72288400Y-89204800D01*
X70764400Y-85082000D02*
X72288400Y-86606000D01*
X79400400Y-97028000D02*
X85242400Y-97028000D01*
X78286200Y-98142200D02*
X79400400Y-97028000D01*
X78322800Y-98105600D02*
X78333600Y-98094800D01*
X78322800Y-99828800D02*
X78322800Y-98105600D01*
D26*
X75692000Y-95548000D02*
X78286200Y-98142200D01*
X75692000Y-73152000D02*
X75692000Y-95548000D01*
M02*
